<svg width="128" height="128" viewBox="0 0 128 128" fill="none" xmlns="http://www.w3.org/2000/svg">
<g filter="url(#filter0_d_77_21)">
<circle cx="64" cy="60" r="60" fill="#212B5F"/>
</g>
<path d="M39.5352 91V77.9091H48.2029V80.1911H42.303V83.3104H47.6276V85.5923H42.303V91H39.5352ZM52.8323 77.9091V91H50.0645V77.9091H52.8323ZM55.1095 91V77.9091H60.2742C61.2629 77.9091 62.1066 78.0859 62.8055 78.4396C63.5086 78.7891 64.0434 79.2855 64.4099 79.929C64.7806 80.5682 64.966 81.3203 64.966 82.1854C64.966 83.0547 64.7785 83.8026 64.4035 84.429C64.0285 85.0511 63.4852 85.5284 62.7735 85.8608C62.0661 86.1932 61.2096 86.3594 60.2039 86.3594H56.7458V84.1349H59.7565C60.2849 84.1349 60.7238 84.0625 61.0732 83.9176C61.4227 83.7727 61.6826 83.5554 61.8531 83.2656C62.0278 82.9759 62.1151 82.6158 62.1151 82.1854C62.1151 81.7507 62.0278 81.3842 61.8531 81.0859C61.6826 80.7876 61.4205 80.5618 61.0669 80.4084C60.7174 80.2507 60.2764 80.1719 59.7437 80.1719H57.8772V91H55.1095ZM62.1791 85.0426L65.4326 91H62.3772L59.194 85.0426H62.1791ZM74.0235 81.674C73.9724 81.1584 73.7529 80.7578 73.3651 80.4723C72.9774 80.1868 72.4511 80.044 71.7863 80.044C71.3346 80.044 70.9532 80.108 70.6421 80.2358C70.3311 80.3594 70.0924 80.532 69.9262 80.7536C69.7643 80.9751 69.6833 81.2266 69.6833 81.5078C69.6748 81.7422 69.7238 81.9467 69.8303 82.1214C69.9411 82.2962 70.0924 82.4474 70.2842 82.5753C70.4759 82.6989 70.6975 82.8075 70.949 82.9013C71.2004 82.9908 71.4688 83.0675 71.7544 83.1314L72.9305 83.4126C73.5015 83.5405 74.0257 83.7109 74.5029 83.924C74.9802 84.1371 75.3936 84.3991 75.743 84.7102C76.0924 85.0213 76.363 85.3878 76.5548 85.8097C76.7508 86.2315 76.8509 86.7152 76.8552 87.2607C76.8509 88.0618 76.6464 88.7564 76.2416 89.3445C75.841 89.9283 75.2615 90.3821 74.5029 90.706C73.7487 91.0256 72.8389 91.1854 71.7735 91.1854C70.7167 91.1854 69.7963 91.0234 69.0122 90.6996C68.2323 90.3757 67.623 89.8963 67.184 89.2614C66.7494 88.6222 66.5214 87.8317 66.5001 86.8899H69.1784C69.2082 87.3288 69.3339 87.6953 69.5555 87.9893C69.7813 88.2791 70.0818 88.4986 70.4568 88.6477C70.836 88.7926 71.2643 88.8651 71.7416 88.8651C72.2103 88.8651 72.6173 88.7969 72.9624 88.6605C73.3119 88.5241 73.5825 88.3345 73.7742 88.0916C73.966 87.8487 74.0619 87.5696 74.0619 87.2543C74.0619 86.9602 73.9745 86.7131 73.7998 86.5128C73.6294 86.3125 73.3779 86.142 73.0455 86.0014C72.7174 85.8608 72.3147 85.733 71.8374 85.6179L70.412 85.2599C69.3083 84.9915 68.4369 84.5717 67.7977 84.0007C67.1585 83.4297 66.841 82.6605 66.8453 81.6932C66.841 80.9006 67.0519 80.2081 67.4781 79.6158C67.9085 79.0234 68.4987 78.5611 69.2487 78.2287C69.9987 77.8963 70.8509 77.7301 71.8055 77.7301C72.7771 77.7301 73.6251 77.8963 74.3495 78.2287C75.0782 78.5611 75.645 79.0234 76.0498 79.6158C76.4546 80.2081 76.6634 80.8942 76.6762 81.674H74.0235ZM78.2183 80.1911V77.9091H88.9697V80.1911H84.9619V91H82.2261V80.1911H78.2183Z" fill="#FF5B00"/>
<path d="M48.0691 73H39.5009L52.5563 35.1818H62.8603L75.8972 73H67.329L57.856 43.8239H57.5605L48.0691 73ZM47.5336 58.1349H67.7722V64.3764H47.5336V58.1349ZM88.4448 35.1818V73H80.449V35.1818H88.4448Z" fill="#FF5B00"/>
<path fill-rule="evenodd" clip-rule="evenodd" d="M69.5706 27.4754L71.4275 21.8509H72.5669L74.4238 27.4754L79.9944 29.3502V30.5007L74.4238 32.3755L72.5669 38H71.4275L69.5706 32.3755L64 30.5007V29.3502L69.5706 27.4754Z" fill="#FF5B00"/>
<path fill-rule="evenodd" clip-rule="evenodd" d="M80.0804 19.8958L81.0364 17H82.1759L83.1319 19.8958L86 20.8611V22.0116L83.1319 22.9768L82.1759 25.8726H81.0364L80.0804 22.9768L77.2123 22.0116V20.8611L80.0804 19.8958Z" fill="#FF5B00"/>
<defs>
<filter id="filter0_d_77_21" x="0" y="0" width="128" height="128" filterUnits="userSpaceOnUse" color-interpolation-filters="sRGB">
<feFlood flood-opacity="0" result="BackgroundImageFix"/>
<feColorMatrix in="SourceAlpha" type="matrix" values="0 0 0 0 0 0 0 0 0 0 0 0 0 0 0 0 0 0 127 0" result="hardAlpha"/>
<feOffset dy="4"/>
<feGaussianBlur stdDeviation="2"/>
<feComposite in2="hardAlpha" operator="out"/>
<feColorMatrix type="matrix" values="0 0 0 0 0 0 0 0 0 0 0 0 0 0 0 0 0 0 0.25 0"/>
<feBlend mode="normal" in2="BackgroundImageFix" result="effect1_dropShadow_77_21"/>
<feBlend mode="normal" in="SourceGraphic" in2="effect1_dropShadow_77_21" result="shape"/>
</filter>
</defs>
</svg>
