<svg width="128" height="128" viewBox="0 0 128 128" fill="none" xmlns="http://www.w3.org/2000/svg">
<g filter="url(#filter0_d_77_29)">
<circle cx="64" cy="60" r="60" fill="#FF5B00"/>
</g>
<path d="M37.5352 91V77.9091H46.2029V80.1911H40.303V83.3104H45.6276V85.5923H40.303V91H37.5352ZM50.8323 77.9091V91H48.0645V77.9091H50.8323ZM53.1095 91V77.9091H58.2742C59.2629 77.9091 60.1066 78.0859 60.8055 78.4396C61.5086 78.7891 62.0434 79.2855 62.4099 79.929C62.7806 80.5682 62.966 81.3203 62.966 82.1854C62.966 83.0547 62.7785 83.8026 62.4035 84.429C62.0285 85.0511 61.4852 85.5284 60.7735 85.8608C60.0661 86.1932 59.2096 86.3594 58.2039 86.3594H54.7458V84.1349H57.7565C58.2849 84.1349 58.7238 84.0625 59.0732 83.9176C59.4227 83.7727 59.6826 83.5554 59.8531 83.2656C60.0278 82.9759 60.1151 82.6158 60.1151 82.1854C60.1151 81.7507 60.0278 81.3842 59.8531 81.0859C59.6826 80.7876 59.4205 80.5618 59.0669 80.4084C58.7174 80.2507 58.2764 80.1719 57.7437 80.1719H55.8772V91H53.1095ZM60.1791 85.0426L63.4326 91H60.3772L57.194 85.0426H60.1791ZM72.0235 81.674C71.9724 81.1584 71.7529 80.7578 71.3651 80.4723C70.9774 80.1868 70.4511 80.044 69.7863 80.044C69.3346 80.044 68.9532 80.108 68.6421 80.2358C68.3311 80.3594 68.0924 80.532 67.9262 80.7536C67.7643 80.9751 67.6833 81.2266 67.6833 81.5078C67.6748 81.7422 67.7238 81.9467 67.8303 82.1214C67.9411 82.2962 68.0924 82.4474 68.2842 82.5753C68.4759 82.6989 68.6975 82.8075 68.949 82.9013C69.2004 82.9908 69.4688 83.0675 69.7544 83.1314L70.9305 83.4126C71.5015 83.5405 72.0257 83.7109 72.5029 83.924C72.9802 84.1371 73.3936 84.3991 73.743 84.7102C74.0924 85.0213 74.363 85.3878 74.5548 85.8097C74.7508 86.2315 74.8509 86.7152 74.8552 87.2607C74.8509 88.0618 74.6464 88.7564 74.2416 89.3445C73.841 89.9283 73.2615 90.3821 72.5029 90.706C71.7487 91.0256 70.8389 91.1854 69.7735 91.1854C68.7167 91.1854 67.7963 91.0234 67.0122 90.6996C66.2323 90.3757 65.623 89.8963 65.184 89.2614C64.7494 88.6222 64.5214 87.8317 64.5001 86.8899H67.1784C67.2082 87.3288 67.3339 87.6953 67.5555 87.9893C67.7813 88.2791 68.0818 88.4986 68.4568 88.6477C68.836 88.7926 69.2643 88.8651 69.7416 88.8651C70.2103 88.8651 70.6173 88.7969 70.9624 88.6605C71.3119 88.5241 71.5825 88.3345 71.7742 88.0916C71.966 87.8487 72.0619 87.5696 72.0619 87.2543C72.0619 86.9602 71.9745 86.7131 71.7998 86.5128C71.6294 86.3125 71.3779 86.142 71.0455 86.0014C70.7174 85.8608 70.3147 85.733 69.8374 85.6179L68.412 85.2599C67.3083 84.9915 66.4369 84.5717 65.7977 84.0007C65.1585 83.4297 64.841 82.6605 64.8453 81.6932C64.841 80.9006 65.0519 80.2081 65.4781 79.6158C65.9085 79.0234 66.4987 78.5611 67.2487 78.2287C67.9987 77.8963 68.8509 77.7301 69.8055 77.7301C70.7771 77.7301 71.6251 77.8963 72.3495 78.2287C73.0782 78.5611 73.645 79.0234 74.0498 79.6158C74.4546 80.2081 74.6634 80.8942 74.6762 81.674H72.0235ZM76.2183 80.1911V77.9091H86.9697V80.1911H82.9619V91H80.2261V80.1911H76.2183Z" fill="#212B5F"/>
<path d="M46.0691 73H37.5009L50.5563 35.1818H60.8603L73.8972 73H65.329L55.856 43.8239H55.5605L46.0691 73ZM45.5336 58.1349H65.7722V64.3764H45.5336V58.1349ZM86.4448 35.1818V73H78.449V35.1818H86.4448Z" fill="#212B5F"/>
<path fill-rule="evenodd" clip-rule="evenodd" d="M67.5706 27.4754L69.4275 21.8509H70.5669L72.4238 27.4754L77.9944 29.3502V30.5007L72.4238 32.3755L70.5669 38H69.4275L67.5706 32.3755L62 30.5007V29.3502L67.5706 27.4754Z" fill="#212B5F"/>
<path fill-rule="evenodd" clip-rule="evenodd" d="M78.0804 19.8958L79.0364 17H80.1759L81.1319 19.8958L84 20.8611V22.0116L81.1319 22.9768L80.1759 25.8726H79.0364L78.0804 22.9768L75.2123 22.0116V20.8611L78.0804 19.8958Z" fill="#212B5F"/>
<defs>
<filter id="filter0_d_77_29" x="0" y="0" width="128" height="128" filterUnits="userSpaceOnUse" color-interpolation-filters="sRGB">
<feFlood flood-opacity="0" result="BackgroundImageFix"/>
<feColorMatrix in="SourceAlpha" type="matrix" values="0 0 0 0 0 0 0 0 0 0 0 0 0 0 0 0 0 0 127 0" result="hardAlpha"/>
<feOffset dy="4"/>
<feGaussianBlur stdDeviation="2"/>
<feComposite in2="hardAlpha" operator="out"/>
<feColorMatrix type="matrix" values="0 0 0 0 0 0 0 0 0 0 0 0 0 0 0 0 0 0 0.25 0"/>
<feBlend mode="normal" in2="BackgroundImageFix" result="effect1_dropShadow_77_29"/>
<feBlend mode="normal" in="SourceGraphic" in2="effect1_dropShadow_77_29" result="shape"/>
</filter>
</defs>
</svg>
