<svg width="159" height="29" viewBox="0 0 159 29" fill="none" xmlns="http://www.w3.org/2000/svg">
<path d="M23.9 4.6C26.5 7.2 27.9 10.5 28 14.5C28 18.5 26.5 21.8 23.9 24.4C21.3 27 18 28.4 14 28.5C10 28.5 6.7 27.1 4.1 24.4C1.5 21.7 0 18.5 0 14.5C0 10.5 1.4 7.2 4.1 4.6C6.7 1.9 10 0.5 14 0.5C18 0.5 21.3 1.9 23.9 4.6ZM6.1 6.5C4 8.6 2.9 11.3 2.8 14.5C2.8 17.7 4 20.4 6.1 22.5C8.2 24.6 10.9 25.7 14.1 25.8C17.3 25.8 19.9 24.6 22.1 22.5C24.2 20.4 25.3 17.7 25.4 14.5C25.4 11.3 24.2 8.6 22.1 6.5C20 4.4 17.3 3.3 14.1 3.2C10.9 3.2 8.2 4.4 6.1 6.5ZM20 8.5C21.6 10.1 22.4 12.1 22.5 14.4C22.5 16.8 21.6 18.7 20 20.3C18.4 21.9 16.4 22.7 14.1 22.8C11.7 22.8 9.8 21.9 8.2 20.3C6.6 18.7 5.8 16.7 5.7 14.4C5.7 12 6.6 10.1 8.2 8.5C9.8 6.9 11.8 6.1 14.1 6C16.5 6 18.4 6.9 20 8.5ZM10.1 10.6C9.1 11.6 8.5 13 8.5 14.5C8.5 16 9 17.4 10.1 18.5C11.2 19.5 12.5 20.1 14 20.1C15.5 20.1 16.9 19.6 17.9 18.5C19 17.4 19.5 16.1 19.5 14.5C19.5 12.9 19 11.6 17.9 10.6C16.9 9.5 15.5 9 14 9C12.4 9 11.1 9.6 10.1 10.6ZM16 12.5C16.5 13 16.8 13.7 16.8 14.5C16.8 15.3 16.5 15.9 16 16.5C15.5 17 14.8 17.3 14 17.3C13.2 17.3 12.6 17 12 16.5C11.5 16 11.2 15.3 11.2 14.5C11.2 13.7 11.5 13.1 12 12.5C12.5 12 13.2 11.7 14 11.6C14.8 11.6 15.4 11.9 16 12.5Z" fill="white"/>
<path d="M8.49995 3.29999H5.69995V14.7H8.49995V3.29999Z" fill="white"/>
<path d="M37.8 15.7V20H41C42.9 20 43.6 19.5 43.6 17.9C43.6 16.3 42.8 15.7 41 15.7H37.8ZM37.8 9.00001V13.3H40C41.3 13.3 42.2 13.2 42.6 12.9C43.1 12.6 43.3 12.1 43.3 11.2C43.3 9.50001 42.5 9.00001 40.4 9.00001H37.8ZM45.3 7.10001C46.2 7.80001 46.7 9.00001 46.7 10.7C46.7 12.4 46 14.1 44.3 14.5C46.4 14.8 47.1 16 47.1 18.4C47.1 20.8 46.7 21.3 45.8 22C44.9 22.7 43.4 23 41.3 23C39.2 23 36.6 23 34.8 22.8C34.6 22.8 34.5 22.7 34.5 22.5V6.60001C34.5 6.40001 34.5 6.30001 34.8 6.30001C36.5 6.10001 38.5 6.10001 40.8 6.10001C42.9 6.10001 44.4 6.50001 45.3 7.10001Z" fill="white"/>
<path d="M55.9 10.9C56.1 10.9 56.2 11.1 56.2 11.3V13.1C56.2 13.3 56.1 13.4 55.8 13.4H53.8C52.6 13.4 52.3 13.6 52.3 14.5V22.5C52.3 22.7 52.2 22.8 52 22.8H49.4C49.2 22.8 49.1 22.7 49.1 22.5V13.7C49.1 12.7 49.4 11.9 49.9 11.5C50.7 10.8 51.8 10.7 53 10.7C54.2 10.7 55.2 10.7 55.9 10.9Z" fill="white"/>
<path d="M60.7 10.8C60.9 10.8 61 10.9 61 11.1V22.5C61 22.7 60.9 22.8 60.7 22.8H58.2C58 22.8 57.9 22.7 57.9 22.5V11.1C57.9 10.9 58 10.8 58.2 10.8H60.7ZM61.3 7.40001C61.3 8.50001 60.6 9.10001 59.5 9.10001C58.4 9.10001 57.6 8.50001 57.6 7.40001C57.6 6.30001 58.3 5.70001 59.5 5.70001C60.7 5.70001 61.3 6.30001 61.3 7.40001Z" fill="white"/>
<path d="M70.8 13.4H68.7C67.7 13.4 67.1 13.6 66.8 14.1C66.5 14.5 66.4 15.4 66.4 16.8C66.4 18.2 66.5 19.1 66.8 19.6C67.1 20 67.8 20.2 68.9 20.2C70 20.2 70.3 20.2 70.8 20.1V13.5V13.4ZM73.6 11.1C73.9 11.1 74 11.3 74 11.6V22.5C74 23.9 73.9 24.7 73.5 25.5C72.9 26.7 71.5 27.2 68.8 27.2C66.1 27.2 66 27.1 64.8 26.9C64.6 26.9 64.5 26.7 64.5 26.6V25C64.5 24.8 64.6 24.7 64.8 24.7H68.5C70.4 24.7 70.8 24.3 70.8 22.8C70 22.8 69.1 22.9 68.2 22.9C66.2 22.9 64.9 22.5 64.2 21.6C63.5 20.7 63.2 19.1 63.2 16.6C63.2 14.1 63.6 12.6 64.3 11.8C65.1 11 66.5 10.6 68.8 10.6C70.5 10.6 72.1 10.7 73.5 11" fill="white"/>
<path d="M79.4 6.20001C79.6 6.20001 79.7 6.30001 79.7 6.50001V10.8C80.4 10.8 81.1 10.7 82 10.7C84.2 10.7 85.3 10.9 86.1 11.7C87 12.5 87.2 13.7 87.2 15.9V22.5C87.2 22.7 87.1 22.8 86.9 22.8H84.3C84.1 22.8 84 22.7 84 22.5V16.7C84 15.6 84 14.9 83.8 14.5C83.5 13.6 83.1 13.5 81.7 13.5H79.8V22.6C79.8 22.8 79.7 22.9 79.5 22.9H76.9C76.7 22.9 76.6 22.8 76.6 22.6V6.50001C76.6 6.30001 76.7 6.20001 76.9 6.20001H79.4Z" fill="white"/>
<path d="M93.3 7.40001C93.5 7.40001 93.6 7.40001 93.6 7.70001V10.8H95.6C95.8 10.8 96 10.9 96 11.1V12.8C96 13 95.9 13.1 95.6 13.1H93.6V19C93.6 19.9 93.9 20.1 94.9 20.1H95.8C96 20.1 96.2 20.2 96.2 20.4V22.2C96.2 22.4 96.1 22.6 95.9 22.6C95.3 22.7 94.7 22.8 94.1 22.8C93.2 22.8 92.8 22.8 92.1 22.6C91.1 22.3 90.7 21.7 90.6 20V13.1H89.3C89.1 13.1 89 13 89 12.8V11.1C89 10.9 89.1 10.8 89.3 10.8H90.6V8.40001C90.6 8.20001 90.7 8.10001 90.9 8.10001L93.4 7.40001H93.3Z" fill="white"/>
<path d="M105.9 10.9C106.1 10.9 106.2 11.1 106.2 11.2V12.8C106.2 13 106.1 13.1 105.8 13.1H101.9C101.1 13.1 100.6 13.4 100.6 13.9V14.1C100.6 14.5 100.9 14.9 101.6 15.1L104.4 16.1C106.1 16.7 106.7 17.7 106.7 19.3V19.6C106.7 21.9 105.1 22.7 102.1 22.7C99.1 22.7 99 22.7 97.6 22.5C97.4 22.5 97.2 22.4 97.2 22.2V20.5C97.2 20.3 97.3 20.2 97.6 20.2H102C103.1 20.2 103.5 20.1 103.5 19.5V19.3C103.5 18.9 103.2 18.6 102.3 18.3L99.7 17.3C98.2 16.8 97.5 15.7 97.5 14V13.6C97.5 11.4 99.1 10.5 102.4 10.5C103.6 10.5 104.7 10.6 105.8 10.8" fill="white"/>
<path d="M117.4 10.9C117.6 10.9 117.8 11.1 117.8 11.3V13C117.8 13.2 117.7 13.3 117.4 13.3H113.9C112.9 13.3 112.3 13.5 112 13.9C111.7 14.3 111.6 15.2 111.6 16.6C111.6 18 111.7 18.9 112 19.3C112.3 19.7 112.9 19.9 113.9 19.9H117.4C117.6 19.9 117.8 20 117.8 20.2V21.9C117.8 22.1 117.7 22.3 117.4 22.3C116.5 22.5 115.3 22.6 113.9 22.6C111.6 22.6 110.3 22.3 109.5 21.4C108.7 20.4 108.5 19.1 108.5 16.5C108.5 13.9 108.7 12.6 109.5 11.6C110.3 10.6 111.6 10.4 113.9 10.4C115.3 10.4 116.5 10.5 117.4 10.7" fill="white"/>
<path d="M123 14.1C122.7 14.5 122.6 15.4 122.6 16.8C122.6 18.2 122.7 19.1 123 19.5C123.3 19.9 123.9 20.1 124.9 20.1C125.9 20.1 126.5 19.9 126.8 19.5C127.1 19 127.2 18.1 127.2 16.8C127.2 15.5 127 14.5 126.8 14.1C126.5 13.7 125.9 13.4 124.9 13.4C123.9 13.4 123.3 13.6 123 14.1ZM129.3 11.9C130.2 12.8 130.4 14.2 130.4 16.8C130.4 19.4 130 20.9 129.3 21.7C128.6 22.5 127.1 22.9 124.9 22.9C122.7 22.9 121.2 22.5 120.5 21.7C119.8 20.9 119.4 19.3 119.4 16.8C119.4 14.3 119.8 12.7 120.5 11.9C121.2 11.1 122.7 10.7 124.9 10.7C127.1 10.7 128.5 11 129.3 11.9Z" fill="white"/>
<path d="M135.7 13.4V20C136.3 20 137 20.1 137.6 20.1C138.7 20.1 139.4 19.9 139.6 19.5C139.9 19.1 140 18.2 140 16.8C140 15.4 139.9 14.5 139.6 14.1C139.3 13.7 138.7 13.4 137.7 13.4H135.5H135.7ZM142.2 11.9C143 12.7 143.3 14.3 143.3 16.6C143.3 18.9 143 20.8 142.3 21.6C141.6 22.5 140.3 22.9 138.4 22.9C136.5 22.9 136.5 22.9 135.8 22.8V26.8C135.8 27 135.7 27.1 135.5 27.1H133C132.8 27.1 132.7 27 132.7 26.8V11.6C132.7 11.3 132.9 11.1 133.1 11.1C134.8 10.8 136.4 10.7 137.8 10.7C140 10.7 141.5 11.1 142.3 11.9" fill="white"/>
<path d="M148.4 15.8H152.7C152.7 13.9 152.2 13.4 150.6 13.4C149 13.4 148.4 13.9 148.4 15.8ZM154.8 11.9C155.5 12.7 155.9 14.3 155.9 16.7V17.4C155.9 17.8 155.7 18 155.2 18H148.4C148.4 18.9 148.6 19.6 148.9 19.8C149.2 20.1 149.9 20.2 150.8 20.2H154.6C154.8 20.2 154.9 20.3 154.9 20.5V22.3C154.9 22.5 154.8 22.6 154.6 22.6C153.6 22.8 152.3 22.9 150.5 22.9C148.7 22.9 146.9 22.5 146.2 21.7C145.5 20.9 145.1 19.3 145.1 16.8C145.1 14.3 145.5 12.7 146.2 11.9C146.9 11.1 148.3 10.7 150.5 10.7C152.7 10.7 154 11.1 154.7 11.9" fill="white"/>
<path d="M157.2 10.3V10.7H157.4C157.6 10.7 157.6 10.7 157.6 10.5C157.6 10.3 157.6 10.3 157.4 10.3H157.2ZM157.9 10.5C157.9 10.7 157.9 10.9 157.6 10.9L157.9 11.4H157.7L157.4 10.9H157.3V11.4H157.1V10.1C157.2 10.1 157.4 10.1 157.6 10.1C158 10.1 158.1 10.1 158.1 10.5M156.3 10.7C156.3 11.1 156.3 11.4 156.6 11.5C156.8 11.7 157.1 11.8 157.4 11.8C157.7 11.8 158 11.8 158.2 11.5C158.4 11.3 158.5 11 158.5 10.7C158.5 9.90001 158.1 9.60001 157.4 9.60001C156.7 9.60001 156.3 10 156.3 10.7ZM157.4 12C157 12 156.6 11.9 156.4 11.7C156.2 11.5 156.1 11.2 156.1 10.7C156.1 10.2 156.2 9.90001 156.4 9.70001C156.6 9.50001 156.9 9.40001 157.4 9.40001C157.9 9.40001 158.2 9.50001 158.4 9.70001C158.6 9.90001 158.7 10.2 158.7 10.7C158.7 11.2 158.6 11.5 158.4 11.7C158.2 11.9 157.9 12 157.4 12Z" fill="white"/>
</svg>
