<svg width="50" height="32" viewBox="0 0 50 32" fill="none" xmlns="http://www.w3.org/2000/svg">
<path d="M34.0909 13.7143C37.8636 13.7143 40.8864 10.6514 40.8864 6.85714C40.8864 3.06286 37.8636 0 34.0909 0C30.3182 0 27.2727 3.06286 27.2727 6.85714C27.2727 10.6514 30.3182 13.7143 34.0909 13.7143ZM15.9091 13.7143C19.6818 13.7143 22.7045 10.6514 22.7045 6.85714C22.7045 3.06286 19.6818 0 15.9091 0C12.1364 0 9.09091 3.06286 9.09091 6.85714C9.09091 10.6514 12.1364 13.7143 15.9091 13.7143ZM15.9091 18.2857C10.6136 18.2857 0 20.96 0 26.2857V32H31.8182V26.2857C31.8182 20.96 21.2045 18.2857 15.9091 18.2857ZM34.0909 18.2857C33.4318 18.2857 32.6818 18.3314 31.8864 18.4C34.5227 20.32 36.3636 22.9029 36.3636 26.2857V32H50V26.2857C50 20.96 39.3864 18.2857 34.0909 18.2857Z" fill="#3371FF"/>
</svg>
