<svg width="40" height="40" viewBox="0 0 40 40" fill="none" xmlns="http://www.w3.org/2000/svg">
<path d="M14.7414 7.9225C10.5588 12.6176 7.68848 19.363 7.42194 19.9985L0 16.8206L8.30356 8.51708C9.26718 7.55346 10.6614 7.1229 12.0145 7.38944L14.7414 7.9225ZM18.8009 29.7578C18.8009 29.7578 26.4689 26.5799 30.8769 22.1718C41.9483 11.1004 40.1031 2.44831 39.5085 0.500562C37.5608 -0.114517 28.9087 -1.93925 17.8373 9.13216C13.4292 13.5402 10.2513 21.2082 10.2513 21.2082L18.8009 29.7578ZM32.0866 25.2677C27.3915 29.4502 20.6461 32.3206 20.0105 32.5871L23.1884 40.0091L31.492 31.7055C32.4556 30.7419 32.8862 29.3477 32.6196 27.9946L32.0866 25.2677ZM14.3518 31.808C14.3518 33.5098 13.6547 35.0474 12.5476 36.1546C10.1283 38.5739 0 40.0091 0 40.0091C0 40.0091 1.43518 29.8808 3.85449 27.4615C4.96163 26.3543 6.49933 25.6573 8.20104 25.6573C11.6045 25.6573 14.3518 28.4046 14.3518 31.808ZM22.5529 13.3557C22.5529 11.1004 24.3981 9.25517 26.6534 9.25517C28.9087 9.25517 30.7539 11.1004 30.7539 13.3557C30.7539 15.611 28.9087 17.4562 26.6534 17.4562C24.3981 17.4562 22.5529 15.611 22.5529 13.3557Z" fill="#FF5B00"/>
</svg>
