<svg width="33" height="39" viewBox="0 0 33 39" fill="none" xmlns="http://www.w3.org/2000/svg">
<path d="M28.7001 34.9C28.7001 35.2 28.5001 35.4 28.2001 35.4H4.40004C4.10004 35.4 3.90004 35.2 3.90004 34.9V4.49998C3.90004 4.19998 4.10004 3.99998 4.40004 3.99998H28.2001C28.5001 3.99998 28.7001 4.19998 28.7001 4.49998V34.9ZM32.3 37.6V1.89998C32.3 1.19998 31.7 0.599976 31 0.599976H1.60005C0.900052 0.599976 0.300049 1.19998 0.300049 1.89998V37.7C0.300049 38.4 0.900052 39 1.60005 39H31C31.7 39 32.3 38.4 32.3 37.7" fill="#BDBAC5"/>
<path d="M28.7 34.9C28.7 35.2 28.5 35.4 28.2 35.4H4.39995C4.09995 35.4 3.89995 35.2 3.89995 34.9V4.5C3.89995 4.2 4.09995 4 4.39995 4H28.2C28.5 4 28.7 4.2 28.7 4.5V34.9ZM30.7 2.9C30.7 2.4 30.2999 2 29.7999 2H2.59996C2.09996 2 1.69995 2.4 1.69995 2.9V36.5C1.69995 37 2.09996 37.4 2.59996 37.4H29.7C30.2 37.4 30.6 37 30.6 36.5V2.9H30.7Z" fill="#A7A3B1"/>
<path d="M28.7 34.9C28.7 35.1999 28.5 35.4 28.2 35.4H4.39996C4.09996 35.4 3.89996 35.1999 3.89996 34.9V4.49995C3.89996 4.19995 4.09996 3.99995 4.39996 3.99995H28.2C28.5 3.99995 28.7 4.19995 28.7 4.49995V34.9ZM29.6 35.6V3.79995C29.6 3.49995 29.3 3.19995 29 3.19995H3.69997C3.39997 3.19995 3.09998 3.49995 3.09998 3.79995V35.6C3.09998 35.9 3.39997 36.2 3.69997 36.2H29C29.3 36.2 29.6 35.9 29.6 35.6Z" fill="#918B9E"/>
<path d="M19.9 27.4H20.4C21.5 27.4 21.9 26.9 21.9 25.7C21.9 24.5 21.4 24.1 20.3 24.1H19.9V27.4ZM18.1 28.6V22.7H20.5C22.3 22.7 23.6 23.4 23.6 25.6C23.6 27.8 22.6 28.6 20.6 28.6H18.1ZM24.6 22.7H26.4V28.6H24.6V22.7ZM14.5 28.6C13.5 28.6 12.9 28 12.9 27V22.7H14.7V26.7C14.7 27.2 14.9 27.3 15.4 27.3H17.1L17.4 28.6H14.5ZM8.40002 26.3H10C9.80003 25.5 9.30003 24.2 9.20003 23.8C9.00003 24.1 8.60002 25.5 8.40002 26.3ZM10.5 28.6C10.5 28.3 10.3 27.7 10.2 27.5H8.10004C8.10004 27.7 7.90003 28.3 7.80003 28.6H5.90002C6.70002 26 7.10003 25 8.00003 22.7H10.3C11.2 24.9 11.6 26 12.4 28.6H10.5ZM13.6 33C13.2 33 12.9 33 12.7 32.9V32.4C13.1 32.4 13.3 32.5 13.4 32.5C13.5 32.5 13.8 32.4999 13.8 32.1999C13.8 31.8999 13.6 31.9 13.4 31.8C13.1 31.6 12.7 31.4 12.7 31C12.7 30.6 13 30.1999 13.7 30.1999C14.4 30.1999 14.2 30.2 14.5 30.3V30.8C14.3 30.8 14.1 30.6999 13.8 30.6999C13.5 30.6999 13.4 30.7 13.4 31C13.4 31.3 13.6 31.2999 13.8 31.4C14.1 31.5999 14.5 31.7999 14.5 32.1999C14.5 32.5999 14.2 33 13.4 33M18.7 32.5C19.1 32.5 19.2 32.3 19.2 31.6C19.2 30.9 19 30.6999 18.7 30.6999H18.5V32.5H18.7ZM17.8 33V30.3H18.6C19.6 30.3 20 30.4999 20 31.6999C20 32.8999 19.6 33.1 18.6 33.1H17.8V33ZM15.7 30C15.5 30 15.4 29.7999 15.4 29.6999C15.4 29.5999 15.6 29.3 15.7 29.3C15.8 29.3 16 29.4999 16 29.6999C16 29.8999 15.8 30 15.7 30ZM16.7 30C16.5 30 16.4 29.7999 16.4 29.6999C16.4 29.5999 16.6 29.3 16.7 29.3C16.8 29.3 17 29.4999 17 29.6999C17 29.8999 16.8 30 16.7 30ZM16.2 33C15.3 33 15.2 32.5999 15.2 31.6999V30.1999H15.9V31.9C15.9 32.2999 15.9 32.5 16.2 32.5C16.5 32.5 16.5 32.2999 16.5 31.9V30.1999H17.2V31.6999C17.2 32.6999 16.9 33 16.1 33" fill="#918B9E"/>
<path d="M15.6 6.19995C14.5 6.19995 14 6.99995 13.6 8.19995L9.89999 19.3C9.59999 20.3 9.2 20.7999 8.5 20.9H10.4C11.5 20.9 11.9 20.0999 12.4 18.9L16.2 7.89995C16.5 6.89995 17 6.39995 17.7 6.29995C17.4 6.19995 15.8 6.19995 15.7 6.19995" fill="#918B9E"/>
<path d="M19.1 6.19995C18 6.19995 17.5 6.99995 17.1 8.19995L13.3 19.2C13 20.2 12.6 20.7 11.9 20.8H13.8C14.9 20.8 15.4 20 15.8 18.8L19.6 7.79995C19.9 6.79995 20.4 6.29995 21.1 6.19995H19.1Z" fill="#918B9E"/>
<path d="M12.1001 6.19995C11.0001 6.19995 10.5001 6.99995 10.1001 8.19995L5.80005 20.9H6.90004C8.00004 20.9 8.40004 20.0999 8.90004 18.9L12.7 7.79995C13 6.79995 13.5 6.29995 14.2 6.19995H12.2H12.1001Z" fill="#918B9E"/>
<path d="M23.3 11.3C22.9 10.4 22.4 10.4 21.7 10.4H19.7L18.9 12.7H22.7C23.2 12.7 23.7 12.7 24 13.2C24 13.2 23.2 11.6 23.1 11.3" fill="#918B9E"/>
<path d="M24.7 14.6C24.3 13.8 23.8001 13.7 23.1001 13.7H18.6001L17.8 16H24.1001C24.7001 16 25.1 16 25.4 16.5C25.4 16.5 24.6 14.8 24.5 14.6" fill="#918B9E"/>
<path d="M26.1 18C25.7 17.1 25.2 17 24.4 17H17.4L16.7 18.9C16.7 19.1 16.7 19.2 16.5 19.3H25.3C25.8 19.3 26.2 19.3 26.6 19.8C26.6 19.8 25.9 18.2 25.9 18.1" fill="#918B9E"/>
</svg>
