<svg width="39" height="39" viewBox="0 0 39 39" fill="none" xmlns="http://www.w3.org/2000/svg">
<path d="M37.7 19.6C37.7 29.4 29.8 37.4 19.9 37.4C10 37.4 2.09998 29.5 2.09998 19.6C2.09998 9.69998 10 1.79998 19.9 1.79998C29.8 1.79998 37.7 9.69998 37.7 19.6ZM19.9 0.599976C9.40002 0.599976 0.900024 9.09998 0.900024 19.6C0.900024 30.1 9.40002 38.6 19.9 38.6C30.4 38.6 38.9 30.1 38.9 19.6C38.9 9.09998 30.4 0.599976 19.9 0.599976Z" fill="#918B9E"/>
<path d="M19.9 30.3C25.8 30.3 30.4999 25.5 30.4999 19.7H31.0999C31.0999 25.9 26.0999 31 19.7999 31M19.9 8.39999V8.99999C14 8.99999 9.29993 13.8 9.29993 19.6H8.69995C8.69995 13.4 13.6999 8.29999 19.9999 8.29999" fill="#918B9E"/>
<path d="M29.0001 11.6C29.3001 11.9 29.6 12.3 29.8 12.6L33.6 10.2C33.4 10 33.1001 9.6 32.9001 9.3L30.5001 10.9H30.3C30.3 11 30.4001 10.9 30.4001 10.9L31.5001 8.8L30.7001 8L28.6 9.1H28.4001C28.4001 9.2 28.5001 9.1 28.5001 9.1L30.1 6.7C29.8 6.5 29.5001 6.2 29.2001 6L26.8 9.8C27.1 10 27.5 10.4 27.8 10.6L30.1 9.4H30.2001C30.2001 9.3 30.1 9.4 30.1 9.4L28.9001 11.7L29.0001 11.6Z" fill="#918B9E"/>
<path d="M20.3 6.8L21.3 4.5V7.6C21.8 7.6 22.2 7.6 22.5 7.7L22.3 3.1C21.8 3.1 21.3 3.1 20.7 3L19.7 5.5L18.7 3C18.2 3 17.7 3 17.1 3.1L16.9 7.7C17.3 7.7 17.7 7.6 18 7.6V4.5C18.1 4.5 18 4.3 18 4.3V4.5L19.1 6.8H20.1H20.3Z" fill="#918B9E"/>
<path d="M8.79993 10.9C8.79993 10.9 9.99994 9.6 10.4999 9.2C10.6999 9 10.8 8.9 10.9 8.9C11 8.9 11.1999 8.9 11.2999 8.9C11.3999 8.9 11.4999 9.1 11.4999 9.3C11.4999 9.5 11.3 9.7 11.2 9.8C11 10 9.49994 11.6 9.49994 11.6L8.79993 11V10.9ZM7.59991 9.7C8.29991 8.9 8.99993 8.2 9.29993 7.9C9.39993 7.9 9.49991 7.7 9.59991 7.7C9.79991 7.7 9.99991 7.7 10.0999 8C10.0999 8.2 10.1 8.4 9.89996 8.6C9.59996 9 8.29993 10.3 8.29993 10.3L7.69995 9.7H7.59991ZM11.7999 10.5C12.3999 9.9 12.7999 9.1 12.0999 8.4C11.7999 8 11.1999 7.9 10.7999 8.1C10.7999 7.9 10.9 7.3 10.4 6.9C10.2 6.7 9.89991 6.6 9.59991 6.7C8.99991 6.7 8.59996 7.1 7.39996 8.5C6.99996 8.9 6.49995 9.5 6.19995 9.9L9.49994 13C10.5999 11.8 11 11.4 11.9 10.5" fill="#918B9E"/>
<path d="M19.9 8.39996V19.7H31.2C31.2 13.5 26.2 8.39996 19.9 8.39996Z" fill="#918B9E"/>
<path d="M8.69995 19.6C8.69995 25.8 13.6999 30.9 19.9999 30.9V19.6H8.69995Z" fill="#918B9E"/>
</svg>
