<svg width="139" height="21" viewBox="0 0 139 21" fill="none" xmlns="http://www.w3.org/2000/svg">
<path d="M20.4924 4.21157L16.2917 6.26737L18.8538 7.25264C19.3795 7.45159 20.0094 7.71211 20.2414 8.33738C20.4735 8.96264 20.1278 9.54054 19.8199 10.0332L18.4181 12.2263C16.7605 14.8269 15.0982 17.4227 13.4359 20.0185C13.4359 19.218 13.4359 18.4127 13.4359 17.6122C14.0705 15.6037 14.6909 13.6 15.2924 11.5916C15.4629 11.0184 15.6286 10.4453 15.7991 9.87212C15.8986 9.52633 15.837 9.32265 15.5008 9.15686L12.9433 7.89685L10.4001 9.15212C10.0686 9.31791 9.99758 9.5216 10.1018 9.86739C10.2675 10.4405 10.438 11.0137 10.6085 11.5869C11.21 13.6 11.8257 15.6085 12.465 17.6074V20.0137C10.798 17.4179 9.14038 14.8221 7.4828 12.2216L6.08095 10.0284C5.77312 9.54528 5.42266 8.97212 5.65946 8.33264C5.89625 7.69317 6.51666 7.45159 7.04709 7.2479L9.60923 6.26263L5.40845 4.20684L6.72031 6.40474L4.55598 7.23843C3.03101 4.86052 1.5155 2.48262 0 0.0999756C4.31445 1.62998 8.62416 3.16946 12.9481 4.6521C17.2815 3.16946 21.5864 1.62998 25.9009 0.0999756C24.3901 2.47788 22.8746 4.85579 21.3544 7.22895L19.1901 6.39527L20.5019 4.19736" fill="#918B9E"/>
<path fill-rule="evenodd" clip-rule="evenodd" d="M102.855 7.36159V9.61634H114.965C115.211 9.62581 115.42 9.4316 115.429 9.18528V7.79264C115.42 7.54633 115.211 7.35212 114.965 7.36159H102.855ZM99.8005 14.8506V5.25842H115.505C116.964 5.25842 118.148 6.14895 118.148 7.5037V9.48844C118.148 10.8763 117.224 11.8142 116.291 11.8142L118.38 14.86H114.97L113.165 11.9327H102.855V14.86H99.8005V14.8506Z" fill="#918B9E"/>
<path d="M55.671 14.86H39.9666C38.508 14.86 37.324 13.7658 37.324 12.4158V7.70738C37.324 6.35738 38.508 5.26316 39.9666 5.26316H55.671V7.88738H40.4971C40.2508 7.87317 40.0377 8.06738 40.0282 8.3137C40.0282 8.3137 40.0282 8.32317 40.0282 8.32791V11.8142C40.0377 12.0606 40.2461 12.2548 40.4923 12.2453H55.671V14.8648V14.86ZM76.4997 5.25842V12.4111C76.4997 13.7611 75.3157 14.8553 73.8571 14.8553H60.7764C59.3177 14.8553 58.1337 13.7611 58.1337 12.4111V5.25842H61.2831V11.8C61.2926 12.0463 61.501 12.2406 61.7473 12.2311H72.8767C73.123 12.2406 73.3314 12.0463 73.3408 11.8V5.25842H76.495H76.4997ZM136.031 9.60686V7.36159H124.044C123.798 7.35212 123.589 7.54633 123.58 7.79264V9.59739C123.58 9.57844 131.754 9.59739 136.031 9.6116V9.60686ZM139 14.86H136.031V11.9374H123.594V14.8648H120.625L120.596 7.71212C120.596 6.36211 121.78 5.2679 123.239 5.2679H138.943C138.972 5.28684 138.986 5.27737 138.991 5.2679L139 14.8648V14.86ZM81.9129 9.6116H94.1648C94.4111 9.62107 94.6194 9.42686 94.6289 9.18054V7.78791C94.6194 7.54159 94.4111 7.34738 94.1648 7.35685H81.9129V9.60686V9.6116ZM94.6952 5.25842C96.637 5.25842 97.3379 6.14895 97.3379 7.5037V9.48844C97.3379 10.8384 96.7364 11.9327 94.6952 11.9327H81.9176V14.86H78.9435V5.25842H94.7H94.6952Z" fill="#918B9E"/>
</svg>
