<svg width="55" height="46" viewBox="0 0 55 46" fill="none" xmlns="http://www.w3.org/2000/svg">
<path d="M21.2 14.1C21.2 15.3 21.2 16.5 21.2 17.7C21.2 18.7 21.6 19.5 22.5 20.1C22.6 20.1 22.6999 20.4 22.7999 20.5C22.8999 21.8 23 23.2 23.1 24.5C23.1 24.8 23.1 25 22.7 25C21.7 25 20.7 25 19.6 25C19.1 25 18.7999 24.8 18.7999 24.3C18.5999 22.1 18.3999 19.8 18.2999 17.6C18.2999 16.4 18.2999 15.3 18.2999 14.1C18.2999 13.6 18.3 13.5 17.7 13.5C17.1 13.5 16.3999 13.3 15.7999 13.2C15.1999 13.1 14.9999 12.6 15.2999 12.1C18.1999 7.3 22 3.3 26.7 0.3C27.4 -0.1 28 -0.1 28.6 0.3C29.7 1.1 30.6999 1.8 31.7999 2.6C31.8999 2.6 32 2.7 32.1 2.8C32.1 2.7 32.2 2.5 32.2 2.4C32.2 2.1 32.2 1.8 32.2 1.6C32.2 1.1 32.5 0.8 33 0.9C33.6 0.9 34.2999 0.9 34.8999 1.1C35.4999 1.1 35.6999 1.3 35.7999 1.9C35.8999 2.9 36.1 3.9 36.2 4.8C36.3 5.6 36.4 6.4 36.6 7.2C36.6 7.6 36.9 7.9 37.1 8.2C38 9.5 38.8999 10.8 39.7999 12.1C40.1999 12.8 40 13.3 39.2 13.4C38.6 13.4 38 13.5 37.5 13.6C37 13.6 37 13.7 37 14.2C37 17.2 36.9 20.2 36.5 23.2C36.5 23.6 36.3999 24 36.2999 24.5C36.2999 24.9 36 25.2 35.5 25.2C34.7 25.2 34 25.2 33.2 25.2C32.9 25.2 32.8999 25 32.8999 24.8C32.9999 23.6 33.1 22.4 33.2 21.2C33.5 17.5 33.5 13.8 33.2 10.1C33.2 9.7 33.0999 9.4 32.8999 9C32.6999 8.6 32.2999 8.5 32 8.8C31.9 8.8 31.8 9 31.7 9.2C30.2 11.3 29.2999 13.6 28.8999 16.1C28.6999 17.3 28.8 18.5 28.7 19.7C28.7 19.9 28.7 20 28.7 20.2C28.7 20.5 28.9999 20.8 29.2999 20.8C29.6999 20.8 30.2 20.9 30.6 21C30.8 21 30.8999 21.1 30.8999 21.3C30.7999 22.5 30.7 23.7 30.6 24.9C30.6 25.1 30.5 25.2 30.2 25.2C28.6 25.2 26.8999 25.2 25.2999 25.2C25.0999 25.2 24.8999 25.2 24.8999 24.9C24.8999 23.6 24.7 22.2 24.6 20.9C24.6 20.6 24.5999 20.5 24.8999 20.3C25.6999 19.7 26 19 26 18C26 15.6 26 13.3 26.1 10.9C26.1 10.7 26.1 10.4 26.1 10.2C26.1 9.9 26.1 9.7 25.7 9.7C25.4 9.7 25.2999 9.9 25.2999 10.1C25.2999 11.2 25.2 12.3 25.1 13.4C25.1 14.1 25.1 14.7 25.1 15.4C25.1 15.5 25.1 15.6 25.1 15.7C25.1 16.1 24.8 16.3 24.5 16.3C24.1 16.3 23.8999 16 23.8999 15.6C23.8999 15 23.8999 14.5 23.8999 13.9C23.8999 12.7 24 11.4 24.1 10.2C24.1 9.8 24 9.6 23.7 9.6C23.4 9.6 23.3 9.8 23.2 10.1C23.2 11.9 23.1 13.6 23 15.4C23 15.9 22.8 16.1 22.5 16.2C22 16.2 21.7 16 21.7 15.5C21.7 15 21.7 14.5 21.7 14C21.7 12.7 21.7999 11.5 21.8999 10.2C21.8999 9.8 21.8 9.6 21.5 9.6C21.3 9.6 21.1 9.8 21.1 10.1C21.1 11.5 20.9999 12.8 20.8999 14.2" fill="#918B9E"/>
<path d="M25.8 41.5C25.8 41.6 25.8 41.7 25.7 41.8C25.5 42.2 25.4 42.7 25.2 43.1C25.2 43.3 25 43.7 24.9 43.8C24.5 43.9 24.1 43.8 23.7 43.8C23.7 43.8 23.6 43.7 23.5 43.6C23 42.3 22.6 41.1 22.1 39.8C22.1 39.6 22.1 39.4 22.4 39.4C23.5 39.4 23.5 39.4 23.8 40.4C24 41 24.1 41.5 24.3 42.1C24.3 41.9 24.4 41.7 24.5 41.5C24.7 40.9 24.9 40.3 25.1 39.7C25.1 39.5 25.3 39.4 25.5 39.4C26.6 39.4 26.6 39.4 26.9 40.4C27.1 40.9 27.3 41.5 27.5 42C27.7 41.2 28 40.5 28.2 39.7C28.2 39.4 28.4 39.3 28.7 39.3C28.9 39.3 29.1 39.3 29.3 39.3C29.8 39.3 29.8 39.3 29.7 39.8C29.3 40.9 28.9 42 28.5 43.1C28.2 43.9 28.5 43.8 27.5 43.8C26.7 43.8 26.9 43.9 26.6 43.2C26.4 42.7 26.3 42.2 26.1 41.7C26.1 41.6 26.1 41.5 26 41.4" fill="#918B9E"/>
<path d="M37.6001 32.2H38.9C38.9 31.5 38.7001 30.9 38.6001 30.2C38.3001 30.3 37.8001 31.3 37.6001 32.2ZM39.1001 33.5C38.4001 33.5 37.8001 33.5 37.1001 33.5C37.1001 33.5 36.9 33.6 36.9 33.7C36.8 34 36.7 34.3 36.5 34.5C36.5 34.6 36.2 34.8 36 34.8C35.8 34.8 35.6 34.8 35.4 34.8C34.9 34.8 34.9001 34.7 35.1001 34.3C35.4001 33.6 35.8001 32.9 36.1001 32.2C36.6001 31.3 37 30.3 37.5 29.4C37.7 29.1 37.9001 28.9 38.2001 28.9C38.6001 28.9 38.9 28.9 39.3 28.9C39.6 28.9 39.8 29 39.8 29.3C40.1 30.9 40.4001 32.6 40.7001 34.2C40.7001 34.6 40.7001 34.7 40.2001 34.7C39.3001 34.7 39.3001 34.7 39.2001 33.8C39.2001 33.6 39.2001 33.5 39.2001 33.3" fill="#918B9E"/>
<path d="M14.8 28.9C15.5 28.9 15.5 28.9 15.4 29.6C15.2 30.5 15.1 31.5 14.9 32.4C14.9 33.1 15 33.4 15.5 33.5C16.2 33.7 16.7 33.4 16.8 32.8C17 31.9 17.1 31 17.3 30.1C17.3 29.8 17.3 29.5 17.4 29.3C17.4 29.1 17.6 28.9 17.8 28.9C17.9 28.9 18 28.9 18.1 28.9C18.8 28.9 18.8 28.9 18.7 29.6C18.5 30.7 18.4 31.7 18.2 32.8C17.9 34.5 16.4 35.3 14.7 34.7C13.7 34.4 13.2 33.5 13.4 32.4C13.6 31.4 13.7 30.3 13.9 29.3C13.9 28.9 14 28.9 14.6 28.9" fill="#918B9E"/>
<path d="M32.4 31.2C33 31.2 33.6 31.2 34.2 31.2C34.6 31.2 34.6 31.2 34.6 31.6C34.6 31.6 34.6 31.6 34.6 31.7C34.6 32.4 34.6 32.4 33.9 32.4H32.2C32.2 32.8 32.1 33.1 32 33.5C32.1 33.5 32.2 33.5 32.4 33.5C33 33.5 33.7 33.5 34.3 33.5C34.6 33.5 34.7 33.6 34.6 33.9C34.4 34.9 34.6 34.8 33.7 34.8C32.8 34.8 31.9 34.8 31.1 34.8C30.6 34.8 30.5 34.7 30.6 34.2C30.9 32.6 31.1 31 31.4 29.4C31.4 29.1 31.6 28.9 32 28.9C33.1 28.9 34.1 28.9 35.2 28.9C35.5 28.9 35.5 28.9 35.5 29.2C35.5 30.1 35.5 30.1 34.5 30.1C33.5 30.1 33.4 30.1 32.9 30.1C32.7 30.1 32.6 30.1 32.6 30.3C32.6 30.6 32.6 30.8 32.5 31.1" fill="#918B9E"/>
<path d="M22.1001 30.1C21.7001 30.1 21.4001 30.1 21.0001 30.1C20.8001 30.1 20.6001 30.3 20.6001 30.5C20.6001 30.6 20.8001 30.8 20.9001 30.9C21.1001 31 21.3001 31 21.5001 31.1C21.8001 31.2 22.2001 31.3 22.5001 31.5C23.8001 32.1 23.5001 33.9 22.5001 34.4C22.1001 34.6 21.7 34.7 21.3 34.7C20.6 34.7 19.8001 34.7 19.1001 34.6C18.4001 34.5 18.8 34.4 18.8 34.2C19 33.2 18.9001 33.4 19.7001 33.4C20.2001 33.4 20.7001 33.4 21.2001 33.4C21.3001 33.4 21.4001 33.4 21.5001 33.4C21.6001 33.3 21.8001 33.1 21.9001 33C21.9001 32.9 21.7001 32.7 21.6001 32.6C21.5001 32.6 21.3001 32.5 21.1001 32.4C20.8001 32.3 20.5001 32.2 20.2001 32.1C19.7001 31.9 19.3 31.5 19.3 30.9C19.3 30.2 19.5001 29.7 20.1001 29.3C20.6001 29 21.1001 28.9 21.7001 28.9C22.2001 28.9 22.6001 28.9 23.1001 28.9C23.5001 28.9 23.6001 29.1 23.5001 29.5C23.5001 29.6 23.5001 29.7 23.5001 29.8C23.5001 30.1 23.3001 30.2 23.0001 30.2C22.8001 30.2 22.5 30.2 22.3 30.2" fill="#918B9E"/>
<path d="M10.5 41C10.8 40.6 11.2 40.3 11.5 39.9C11.9 39.3 12.6 39.5 13.1 39.5C13.3 39.5 13.3 39.7 13.1 39.9C12.7 40.3 12.4 40.7 12 41.1C11.8 41.3 11.7 41.5 12 41.8C12.5 42.4 12.9 42.9 13.3 43.5C13.3 43.5 13.4 43.7 13.3 43.8C13.3 43.8 13.1 43.8 13 43.8C12.3 43.9 11.7 43.8 11.3 43C11.3 42.9 11.1 42.7 11 42.6C10.9 42.5 10.8 42.4 10.6 42.3C10.5 42.5 10.3 42.7 10.2 42.9C10.2 43.1 10.2 43.3 10.2 43.5C10.2 43.7 10.2 43.8 9.90002 43.8C9.23336 43.8 8.90002 43.4666 8.90002 42.8C8.90002 41.2 8.90002 39.5 8.90002 37.9C8.90002 37.6 8.90002 37.5 9.30002 37.5C10.4 37.5 10.2 37.4 10.2 38.4C10.2 39.2 10.2 40 10.2 40.9" fill="#918B9E"/>
<path d="M36.1 42.2C36.4 41.4 36.7 40.7 36.9 39.9C36.9 39.6 37.1 39.5 37.4 39.5C37.6 39.5 37.8 39.5 38 39.5C38.3 39.5 38.4 39.5 38.3 39.9C38 40.7 37.6 41.6 37.3 42.4C37 43.1 36.8 43.8 36.4 44.5C36 45.4 35.3 45.7 34.3 45.6C34.1 45.6 34 45.6 34 45.3C34 45.3 34 45.1 34 45C34 44.6 34.2 44.4 34.6 44.4C35.1 44.4 35.3 44 35.1 43.6C34.6 42.4 34.2 41.2 33.7 40C33.5 39.6 33.6 39.5 34 39.5C34.6666 39.5 35.1 39.8 35.3 40.4C35.5 41 35.7 41.6 35.9 42.2" fill="#918B9E"/>
<path d="M15.4999 41.2C15.6999 41.2 15.9 41.2 16.1 41.2C16.3 41.2 16.3999 41.2 16.2999 40.9C16.0999 40.6 15.7999 40.4 15.4999 40.4C15.0999 40.4 14.9 40.5 14.7 40.9C14.7 41.1 14.6999 41.2 14.8999 41.2C15.0999 41.2 15.3 41.2 15.6 41.2M14.6 42.2C14.7 42.7 15.2 42.9 15.6 42.9C15.8 42.9 16.0999 42.9 16.2999 42.7C16.4999 42.7 16.6 42.7 16.7 42.7C16.7 42.7 16.7999 42.8 16.8999 42.9C17.2999 43.2 17.2999 43.4 16.8999 43.6C15.9999 44.1 14.7999 44.1 13.9999 43.6C13.1999 43 12.8999 41.9 13.2999 40.9C13.6999 39.8 14.7999 39.2 15.9999 39.5C17.0999 39.8 17.8 40.8 17.6 42C17.6 42.2 17.4 42.3 17.2 42.3C16.4 42.3 15.6999 42.3 14.8999 42.3H14.4999L14.6 42.2Z" fill="#918B9E"/>
<path d="M48.3 39.9C49.2 39.2 50.1 39.2 51.1 40C51.5 39.6 51.9 39.4 52.5 39.4C53.7 39.3 54.5 40 54.5 41.2C54.5 42 54.5 42.8 54.5 43.6C54.5 43.9 54.3 43.9 54.1 43.9C53.9 43.9 53.7 43.9 53.7 43.6C53.7 42.8 53.7 42.1 53.7 41.3C53.7 40.4 53 39.9 52.2 40.2C51.7 40.3 51.4 40.8 51.4 41.4C51.4 42.1 51.4 42.9 51.4 43.6C51.4 43.9 51.3 44 51 44C50.7 44 50.6 44 50.6 43.6C50.6 42.8 50.6 42.1 50.6 41.3C50.6 40.5 49.9 40 49.1 40.2C48.6 40.3 48.4 40.8 48.4 41.4C48.4 42.1 48.4 42.8 48.4 43.5C48.4 44 48.4 44 47.9 44C47.7 44 47.6 44 47.6 43.7C47.6 42.4 47.6 41.1 47.6 39.8C47.6 39.6 47.7 39.5 47.9 39.5C48.1 39.5 48.4 39.5 48.4 39.9" fill="#918B9E"/>
<path d="M31.7 42.2C31.5 42.2 31.3 42.2 31 42.3C30.9 42.3 30.8 42.5 30.8 42.6C30.8 42.7 30.9 42.9 31 42.9C31.3 43.1 31.9 42.9 32.2 42.7C32.2 42.6 32.3 42.4 32.4 42.2C32.3 42.2 32.1 42.2 32 42.2C32 42.2 32 42.2 31.8 42.2M32.5 43.5C31.8 44.1 31.1 44.1 30.4 43.8C29.8 43.6 29.5 43.1 29.5 42.5C29.5 42 29.8 41.6 30.4 41.4C30.9 41.3 31.3 41.3 31.8 41.2C32 41.2 32.2 41.2 32.3 41.2C32.3 40.8 32.1 40.5 31.7 40.5C31.4 40.5 31.1 40.6 30.7 40.7C30.6 40.7 30.4 40.7 30.3 40.7C30.2 40.7 30.1 40.5 30 40.5C29.7 40.2 29.7 40.1 30 39.8C30.8 39.3 31.7 39.3 32.6 39.6C33.3 39.9 33.6 40.4 33.6 41.1C33.6 41.9 33.6 42.8 33.6 43.6C33.6 43.8 33.6 43.9 33.3 43.9C33.1 43.9 32.9 43.9 32.7 43.9C32.5 43.9 32.3 43.9 32.3 43.5" fill="#918B9E"/>
<path d="M6.30005 43.1C6.80005 43.1 7.20005 42.9 7.30005 42.5C7.30005 42.5 7.30007 42.2 7.20007 42.2C6.80007 42.2 6.40007 42.2 6.10007 42.3C6.00007 42.3 5.80005 42.5 5.80005 42.6C5.80005 42.7 5.90006 42.9 6.00006 42.9C6.10006 42.9 6.30005 42.9 6.30005 42.9M7.30005 41.3C7.30005 41 7.20005 40.8 6.90005 40.7C6.50005 40.6 6.10007 40.7 5.70007 40.8C5.50007 40.9 5.40007 40.8 5.20007 40.8C5.20007 40.8 5.20007 40.8 5.10007 40.7C4.60007 40.3 4.60007 40.1 5.20007 39.9C6.00007 39.5 6.80007 39.5 7.60007 39.8C8.30007 40.1 8.60007 40.6 8.60007 41.3C8.60007 42.2 8.60007 43 8.60007 43.9C8.60007 44.1 8.60005 44.2 8.30005 44.2C8.10005 44.2 7.90007 44.2 7.70007 44.2C7.50007 44.2 7.30005 44.2 7.30005 43.8C6.60005 44.3 6.00005 44.4 5.30005 44.2C4.70005 44 4.30005 43.5 4.30005 42.9C4.30005 42.3 4.60005 41.9 5.30005 41.7C5.50005 41.7 5.60005 41.7 5.80005 41.7C6.30005 41.7 6.70007 41.7 7.20007 41.7" fill="#918B9E"/>
<path d="M20.3 42.2C19.9 42.2 19.6 42.2 19.3 42.4C19.3 42.4 19.1001 42.6 19.1001 42.7C19.1001 42.8 19.1 43 19.3 43.1C19.6 43.3 20.3001 43.1 20.5001 42.9C20.5001 42.8 20.6001 42.6 20.6001 42.5C20.6001 42.5 20.4 42.5 20.3 42.4M20.8 43.5C20.1 44.1 19.3001 44.1 18.6001 43.8C18.1001 43.6 17.8 43.1 17.8 42.6C17.8 42.1 18.1001 41.7 18.7001 41.5C19.2001 41.4 19.7001 41.3 20.2001 41.3C20.4001 41.3 20.6001 41.3 20.7001 41.3C20.7001 40.9 20.6 40.7 20.3 40.6C19.9 40.5 19.5001 40.5 19.2001 40.6C19.0001 40.7 18.8001 40.7 18.7001 40.6C18.7001 40.6 18.6001 40.5 18.5001 40.4C18.2001 40.1 18.2001 40 18.5001 39.7C19.3001 39.2 20.2001 39.2 21.1001 39.5C21.7001 39.7 22.1001 40.2 22.1001 40.9C22.1001 41.8 22.1001 42.6 22.1001 43.5C22.1001 43.7 22.1 43.8 21.8 43.8C21.6 43.8 21.4001 43.8 21.2001 43.8C21.0001 43.8 20.8 43.8 20.8 43.4" fill="#918B9E"/>
<path d="M2.89993 38.1C3.59993 38.1 4.19993 38.1 4.89993 38.1C5.19993 38.1 5.29993 38.1 5.29993 38.4C5.29993 39.4 5.39994 39.3 4.49994 39.3C3.69994 39.3 3.69995 39.3 3.69995 40.1C3.69995 40.9 3.69995 42.4 3.69995 43.5C3.69995 43.8 3.69993 43.9 3.29993 43.9C3.09993 43.9 2.89995 43.9 2.59995 43.9C2.29995 43.9 2.19995 43.9 2.19995 43.5C2.19995 42.2 2.19995 41 2.19995 39.7C2.19995 39.4 2.19993 39.2 1.79993 39.3C1.49993 39.3 1.19993 39.3 0.899934 39.3C0.699934 39.3 0.599946 39.3 0.599946 39C0.599946 37.9 0.49994 38.1 1.49994 38.1C1.99994 38.1 2.49994 38.1 2.99994 38.1" fill="#918B9E"/>
<path d="M43.5999 30.2C43.3999 31.6 43.0999 33 42.8999 34.4C42.8999 34.8 42.7999 34.9 42.3999 34.9C41.7999 34.9 41.5666 34.6 41.7 34C41.9 32.8 42.0999 31.7 42.2999 30.5C42.2999 30.5 42.2999 30.3 42.2999 30.2C41.8999 30.2 41.4999 30.2 41.0999 30.2C40.7999 30.2 40.7 30.2 40.7 29.8C40.8 28.9 40.7 28.9 41.7 28.9C42.7 28.9 43.9999 28.9 45.0999 28.9C45.4999 28.9 45.5999 28.9 45.4999 29.4C45.2999 30.3 45.4999 30.2 44.4999 30.2H43.7" fill="#918B9E"/>
<path d="M26.9 30.2C26.7 31.6 26.4 33 26.2 34.3C26.2 34.8 26.1 34.8 25.6 34.8C24.8 34.8 24.8 34.8 24.9 34C25.1 32.8 25.3 31.6 25.5 30.5C25.5 30.5 25.5 30.3 25.5 30.2C25.1 30.2 24.7 30.2 24.3 30.2C24 30.2 23.9 30.2 23.9 29.8C24 28.9 23.9 28.9 24.9 28.9C25.9 28.9 27.2 28.9 28.3 28.9C28.7 28.9 28.7 28.9 28.7 29.3C28.6 30.3 28.6 30.2 27.7 30.2C27.4 30.2 27.2 30.2 26.9 30.2Z" fill="#918B9E"/>
<path d="M11.8 30.2C11.4 30.2 11.1 30.2 10.8 30.2C10.5 30.2 10.4 30.1 10.5 29.8C10.5 29.6 10.5 29.4 10.5 29.2C10.5 29 10.7 28.9 10.9 28.9C11.6 28.9 12.3 28.9 13 28.9C13.3 28.9 13.4 29 13.3 29.4C13.1 30.5 12.9 31.5 12.7 32.6C12.7 33.1 12.5 33.5 12.4 34C12.1 35 11.3 35.7 10.3 35.9C10 35.9 9.9 35.9 9.8 35.6C9.8 35.6 9.80003 35.4 9.70003 35.4C9.50003 34.9 9.50002 34.8 10 34.7C10.7 34.5 11.1 34 11.2 33.3C11.4 32.3 11.6 31.3 11.7 30.2" fill="#918B9E"/>
<path d="M44.9 43.3C45.7 43.3 46.4 42.6 46.4 41.7C46.4 40.8 45.8 40.1 44.9 40.1C44.1 40.1 43.4 40.8 43.4 41.7C43.4 42.6 44 43.3 44.9 43.3ZM44.9 44C43.6 44 42.6 43 42.6 41.7C42.6 40.4 43.6 39.4 44.9 39.4C46.2 39.4 47.2 40.4 47.2 41.7C47.2 43 46.2 44 44.9 44Z" fill="#918B9E"/>
<path d="M40.9 43.9999C39.9 43.9999 39.1 43.4999 38.8 42.4999C38.5 41.4999 38.8 40.3999 39.6 39.7999C40.3 39.2999 41.5 39.1999 42.3 39.7999C42.4 39.7999 42.6 39.9999 42.5 40.1999C42.3 40.4999 42.1 40.5999 41.9 40.3999C41.2 39.9999 40.4 40.0999 40 40.5999C39.5 41.1999 39.5 42.1999 40 42.7999C40.5 43.2999 41.2 43.3999 41.9 42.9999C42.2 42.7999 42.3 42.8999 42.5 43.1999C42.7 43.3999 42.5 43.4999 42.3 43.5999C41.9 43.8999 41.5 43.9999 41 43.9999" fill="#918B9E"/>
<path d="M38.6 43.5C38.6 43.8 38.3 44 38 44C37.7 44 37.5 43.7 37.5 43.4C37.5 43.1 37.8 42.9 38.1 42.9C38.4 42.9 38.6 43.2 38.6 43.5Z" fill="#918B9E"/>
</svg>
