<svg width="96" height="29" viewBox="0 0 96 29" fill="none" xmlns="http://www.w3.org/2000/svg">
<path d="M25.1 18.4C25.1 18.7 25.1 18.8 24.7 18.8C24.2 18.8 23.6 18.8 23.1 18.8C22.8 18.8 22.8 18.8 22.8 18.5C22.8 17.1 22.8 15.7 22.8 14.3C22.8 14.1 22.8 14 22.8 13.8C22.8 13.1 22.4 12.7 21.8 12.5C21.1 12.3 20.5 12.5 20.1 13C19.8 13.4 19.8 13.8 19.8 14.3C19.8 15.7 19.8 17.1 19.8 18.5C19.8 18.9 19.8 18.9 19.4 18.9C18.9 18.9 18.4 18.9 17.9 18.9C17.6 18.9 17.5 18.9 17.5 18.5C17.5 17.1 17.5 15.7 17.5 14.4C17.5 14.2 17.5 14 17.5 13.9C17.4 12.7 16.4 12.4 15.5 12.6C14.9 12.8 14.6 13.2 14.5 13.8C14.5 14 14.5 14.3 14.5 14.5C14.5 15.9 14.5 17.2 14.5 18.6C14.5 18.9 14.5 19 14.1 19C13.6 19 13.1 19 12.6 19C12.3 19 12.2 18.9 12.2 18.6C12.2 17.8 12.2 17 12.2 16.2C12.2 15.4 12.2 14.5 12.2 13.7C12.4 11.7 13.9 10.4 16 10.4C17 10.4 17.8 10.7 18.5 11.5C18.7 11.7 18.7 11.5 18.8 11.5C19.8 10.4 21.2 10.3 22.5 10.6C23.8 10.9 24.6 11.8 25 13.1C25 13.4 25.1 13.7 25.1 14C25.1 15.5 25.1 17 25.1 18.5M11.1 12.4C9.59998 13.9 8.09998 15.4 6.59998 16.9C6.29998 17.2 6.30001 17.2 6.70001 17.4C7.90001 17.9 9.10001 17.8 10.2 16.9C10.4 16.7 10.5 16.7 10.7 16.9C10.7 16.9 10.8 17 10.9 17.1C11.3 17.5 11.3 17.5 10.9 17.8C9.60002 18.8 8.1 19 6.5 18.5C5 18 4.09999 16.8 3.79999 15.3C3.79999 15.1 3.79999 14.8 3.79999 14.5C3.79999 12.8 4.60001 11.5 6.20001 10.8C7.70001 10.1 9.2 10.2 10.5 11.3C10.7 11.5 10.9 11.7 11.1 11.9C11.3 12.1 11.3 12.3 11.1 12.5M28.7 12.2C27.8 6.29998 23.1 1.39998 17.1 0.299975C16.6 0.299975 16.2 0.299976 15.7 0.0999756H13.1H12.9C12.4 0.0999756 11.8 0.099975 11.3 0.199975C8.69999 0.799975 6.49998 1.89998 4.59998 3.69998C3.09998 5.09998 1.89998 6.69998 1.09998 8.49998C0.599976 9.59998 0.199976 10.7 0.0999756 11.8C0.0999756 12.2 0.1 12.6 0 13.1V15.8C0.1 16.1 0.100012 16.4 0.200012 16.8C1.50001 24.9 9.40002 30.3 17.4 28.6C25 27 29.9 19.9 28.7 12.2Z" fill="#918B9E"/>
<path d="M31.6001 22.3C31.6001 21.7 31.6001 21.2 31.6001 20.6C31.6001 18.7 33.2001 17.4 35.1001 17.7C35.7001 17.7 36.2001 18 36.7001 18.5C36.8001 18.6 36.9001 18.7 37.0001 18.5C37.9001 17.6 38.9001 17.5 40.1001 17.8C41.2001 18.1 41.8001 18.9 42.1001 20C42.1001 20.3 42.1001 20.5 42.1001 20.8C42.1001 21.9 42.1001 23.1 42.1001 24.2C42.1001 24.5 42.1001 24.6 41.7001 24.6C41.3001 24.6 40.9001 24.6 40.6001 24.6C40.3001 24.6 40.2001 24.6 40.2001 24.2C40.2001 23.2 40.2001 22.1 40.2001 21.1C40.2001 20.9 40.2001 20.8 40.2001 20.6C40.2001 19.8 39.7001 19.4 38.9001 19.4C38.2001 19.4 37.8001 19.9 37.7001 20.7C37.7001 21.5 37.7001 22.4 37.7001 23.2C37.7001 23.6 37.7001 23.9 37.7001 24.3C37.7001 24.5 37.7001 24.6 37.4001 24.6C37.0001 24.6 36.6001 24.6 36.2001 24.6C35.9001 24.6 35.8001 24.6 35.9001 24.3C35.9001 23.3 35.9001 22.3 35.9001 21.3C35.9001 21 35.9001 20.8 35.9001 20.5C35.9001 19.7 35.4001 19.4 34.6001 19.4C33.9001 19.4 33.5001 19.9 33.4001 20.6C33.4001 21.2 33.4001 21.8 33.4001 22.4C33.4001 23 33.4001 23.7 33.4001 24.3C33.4001 24.6 33.4001 24.6 33.1001 24.6C32.7001 24.6 32.3001 24.6 31.9001 24.6C31.7001 24.6 31.6001 24.6 31.6001 24.3V22.4V22.3Z" fill="#918B9E"/>
<path d="M84.6001 22.2C84.6001 21.7 84.6001 21.1 84.6001 20.5C84.7001 18.9 85.8001 17.9 87.4001 17.8C88.3001 17.8 89.1001 18 89.7001 18.6C89.8001 18.7 89.9001 18.7 90.0001 18.6C90.9001 17.5 93.1001 17.5 94.2001 18.5C94.8001 19.1 95.1001 19.7 95.1001 20.5C95.1001 21.8 95.1001 23 95.1001 24.3C95.1001 24.6 95.1001 24.6 94.8001 24.6C94.4001 24.6 94.0001 24.6 93.7001 24.6C93.4001 24.6 93.3001 24.6 93.3001 24.2C93.3001 23.1 93.3001 22 93.3001 20.8C93.3001 20.6 93.3001 20.5 93.3001 20.3C93.1001 19.6 92.7001 19.3 92.0001 19.4C91.4001 19.4 91.0001 19.8 90.9001 20.4C90.8001 21.3 90.9001 22.2 90.9001 23.2C90.9001 23.6 90.9001 23.9 90.9001 24.3C90.9001 24.5 90.9001 24.6 90.6001 24.6C90.2001 24.6 89.8001 24.6 89.4001 24.6C89.2001 24.6 89.1001 24.6 89.1001 24.3C89.1001 23.2 89.1001 22.1 89.1001 20.9C89.1001 20.8 89.1001 20.6 89.1001 20.5C89.1001 19.8 88.6001 19.4 87.9001 19.4C87.2001 19.4 86.7001 19.8 86.7001 20.5C86.6001 21.7 86.7001 22.9 86.7001 24C86.7001 24.7 86.7001 24.6 86.1001 24.6C85.8001 24.6 85.5001 24.6 85.2001 24.6C85.0001 24.6 84.9001 24.6 84.9001 24.3C84.9001 23.6 84.9001 23 84.9001 22.2" fill="#918B9E"/>
<path d="M55.9001 21.2C55.9001 22.3 55.2001 23 54.2001 23C53.2001 23 52.5001 22.3 52.5001 21.2C52.5001 20.1 53.2001 19.4 54.2001 19.4C55.2001 19.4 55.9001 20.1 55.9001 21.2ZM57.6 24.2C57.6 21.1 57.6 17.9 57.6 14.8C57.6 14.6 57.6 14.5 57.3 14.5C56.9 14.5 56.5 14.5 56.1 14.5C55.8 14.5 55.7001 14.5 55.7001 14.9C55.7001 15.9 55.7001 17 55.7001 18C55.7001 18.1 55.7001 18.2 55.7001 18.3C55.7001 18.3 55.7 18.3 55.6 18.3C54.6 17.6 53.2 17.6 52.1 18.3C50.7 19.2 50.2001 21.2 50.9001 22.8C51.7001 24.8 53.8 25.1 55.1 24.5C55.3 24.4 55.5001 24.3 55.7001 24.1C55.7001 24.4333 55.9 24.6 56.3 24.6C56.6 24.6 56.9 24.6 57.3 24.6C57.6 24.6 57.6 24.6 57.6 24.3" fill="#918B9E"/>
<path d="M67.3 21.2C67.3 22.2 66.6 23 65.6 23C64.6 23 63.9 22.3 63.9 21.2C63.9 20.1 64.6 19.4 65.6 19.4C66.6 19.4 67.3 20.1 67.3 21.2ZM69 18.2C69 18 69 17.9 68.7 17.9C68.3 17.9 67.9 17.9 67.5 17.9C67.3 17.9 67.1 17.9 67.2 18.2C67.2 18.4 67.2 18.4 67 18.3C66.1 17.5 64.3 17.5 63.2 18.5C62.2 19.4 61.9 20.6 62.1 21.9C62.6 24.8 65.6 25.3 67 24.1C67.2 24 67.2 24.1 67.2 24.2C67.2 24.5 67.2 24.5 67.5 24.5C67.9 24.5 68.3 24.5 68.6 24.5C68.9 24.5 69 24.5 69 24.1C69 23.1 69 22.1 69 21.1V18.1V18.2Z" fill="#918B9E"/>
<path d="M47.6 20.5C47.2 20.5 46.8 20.5 46.4 20.5C45.9 20.5 45.5 20.5 45 20.5C44.8 20.5 44.8 20.5 44.8 20.2C45 19.6 45.6 19.2 46.3 19.2C47 19.2 47.5 19.5 47.8 20.1C47.9 20.4 47.9 20.5 47.6 20.5ZM46.9 17.7C45.4 17.5 44.2 18.1 43.4 19.3C42.6 20.6 42.7 21.9 43.4 23.1C44.3 24.4 45.6 24.8 47.1 24.6C47.8 24.6 48.5 24.2 49 23.7C49.1 23.6 49.2 23.5 49 23.3C48.7 23.1 48.5 22.8 48.3 22.6C48.2 22.5 48.1 22.5 48 22.6C47.8 22.8 47.5 23 47.1 23.1C46.1 23.4 45.2 23.1 44.8 22.2C44.7 21.9 44.7 21.8 45 21.8C45.9 21.8 46.7 21.8 47.6 21.8C48.2 21.8 48.7 21.8 49.3 21.8C49.6 21.8 49.7 21.8 49.7 21.5C49.9 19.7 48.8 17.9 46.9 17.7Z" fill="#918B9E"/>
<path d="M81.9 21.3C81.9 22.3 81.2 23 80.1 23C79.1 23 78.4 22.2 78.4 21.2C78.4 20.2 79.1 19.4 80.1 19.5C81.1 19.5 81.8 20.3 81.8 21.3M83.7 21.2C83.7 19.2 82.2 17.7 80.1 17.7C78.1 17.7 76.5 19.2 76.5 21.2C76.5 23.2 78.1 24.7 80.1 24.7C82.2 24.7 83.7 23.2 83.7 21.2Z" fill="#918B9E"/>
<path d="M70 21.2C70 19.7 70.7 18.6 72.1 18C73.5 17.4 74.9 17.6 76.1 18.6C76.3 18.7 76.3 18.9 76.1 19C75.8 19.3 75.6 19.5 75.3 19.8C75.2 20 75.1 20 74.9 19.8C73.9 19 72.4 19.4 72 20.5C71.7 21.3 72 22.2 72.6 22.6C73.3 23.1 74.2 23 74.9 22.5C75.1 22.3 75.2 22.4 75.3 22.5C75.5 22.8 75.8 23 76.1 23.3C76.3 23.5 76.3 23.6 76.1 23.7C75.1 24.6 73.5 24.9 72.1 24.3C70.7 23.7 70.1 22.6 70 21.1" fill="#918B9E"/>
<path d="M55.7 9.59997C55.7 9.89997 55.7001 9.99997 55.4001 9.99997C54.8001 9.99997 54.1 9.99997 53.5 9.99997C52.9 9.99997 52.2 9.99997 51.6 9.99997C51.4 9.99997 51.3001 9.99997 51.4001 9.79997C51.5001 8.79997 52.5 8.09997 53.6 7.99997C54.8 7.99997 55.6 8.59997 55.8 9.59997M56.7 10.5C56.8 9.09997 56.1 7.89997 55 7.29997C53.7 6.69997 52.1 7.09997 51.2 8.09997C50 9.39997 50 11.5 51.2 12.8C52.4 14.1 54.5001 14.3 55.9001 13.2C56.5001 12.8 56.5001 12.7 55.9001 12.3C55.8001 12.2 55.7 12.2 55.6 12.3C55.2 12.8 54.6 12.9 54 13C52.9 13.1 51.8 12.4 51.5 11.3C51.4 10.9 51.5 10.9 51.8 10.9C52.6 10.9 53.4 10.9 54.1 10.9C54.8 10.9 55.6001 10.9 56.4001 10.9C56.7001 10.9 56.8 10.8 56.8 10.5" fill="#918B9E"/>
<path d="M36.5 9.99999C35.9 9.99999 35.3 9.99999 34.7 9.99999C34.1 9.99999 33.4 9.99999 32.8 9.99999C32.6 9.99999 32.5 9.99999 32.6 9.69999C32.8 8.69999 33.7 7.99999 34.8 7.99999C36 7.99999 36.7 8.49999 37 9.59999C37 9.99999 37 9.99999 36.7 9.99999M37.9 10.6C38.1 9.29999 37.4 7.99999 36.3 7.49999C34.1 6.39999 31.4 7.89999 31.5 10.6C31.5 12 32.1 13 33.3 13.6C34.5 14.2 35.8 14.1 37 13.3C37.6 12.9 37.6 12.8 37 12.3C36.9 12.2 36.8 12.2 36.7 12.3C36.3 12.8 35.7 13 35.1 13C33.9 13.1 32.8 12.4 32.5 11.3C32.5 11 32.5 11 32.8 11C33.6 11 34.4 11 35.2 11C36 11 36.8 11 37.6 11C37.8 11 37.9 11 38 10.7" fill="#918B9E"/>
<path d="M76.4001 8.69999C75.4001 9.69999 74.3001 10.8 73.3001 11.8C73.1001 12 73.0001 11.8 73.0001 11.7C72.2001 10.1 73.0001 7.99999 75.2001 7.99999C75.7001 7.99999 76.1001 7.99999 76.5001 8.29999C76.6001 8.29999 76.7001 8.49999 76.5001 8.59999M77.5001 8.19999C76.6001 7.19999 75.5001 6.89999 74.3001 7.09999C72.6001 7.39999 71.5 8.99999 71.6 10.7C71.8 12.6 73.2001 13.8 75.0001 13.8C75.8001 13.8 76.5 13.6 77.1 13.2C77.7 12.8 77.7 12.8 77.1 12.3C76.9 12.1 76.9001 12.2 76.7001 12.3C75.9001 13 74.9001 13.1 73.9001 12.7C73.5001 12.6 73.5001 12.5 73.9001 12.2C75.1001 11 76.3001 9.79999 77.5001 8.59999C77.7001 8.39999 77.7001 8.29999 77.5001 8.09999" fill="#918B9E"/>
<path d="M59.1 8.00002C59.3 8.00002 59.3001 7.80003 59.4001 7.70003C60.3001 7.00003 61.3 6.80002 62.3 7.20002C63.3 7.60002 63.8 8.50002 63.8 9.50002C63.8 10.8 63.8 12 63.8 13.3C63.8 13.6 63.8001 13.6 63.5001 13.6C62.7001 13.6 62.8 13.6 62.8 12.9C62.8 11.8 62.8 10.7 62.8 9.70003C62.8 8.80003 62.3001 8.10002 61.5001 7.90002C60.6001 7.70002 59.8 8.00003 59.3 8.70003C59.1 9.00003 59.0001 9.40003 59.0001 9.70003C59.0001 10.8 59.0001 12 59.0001 13.1C59.0001 13.4 59 13.5 58.6 13.5C57.9 13.5 58.0001 13.5 58.0001 12.9C58.0001 11 58.0001 9.20003 58.0001 7.30002C58.0001 7.00002 58.0001 6.90002 58.4001 6.90002C59.1001 6.90002 59.0001 6.90002 59.0001 7.50002C59.0001 7.50002 59.0001 7.60003 59.0001 7.70003" fill="#918B9E"/>
<path d="M41.4 13.9C40.4 13.9 39.6 13.6 38.9 13C38.7 12.8 38.7 12.7 38.9 12.5C39.3 12.1 39.3 12.1 39.7 12.5C40.4 13 41.1 13.2 41.9 13C42.3 13 42.6 12.7 42.6 12.3C42.6 11.9 42.5 11.6 42.1 11.3C41.7 11.1 41.3 11 40.8 10.9C40.5 10.9 40.2 10.7 39.9 10.5C38.6 9.9 38.9 8.2 39.7 7.6C40.7 6.9 42.5 7 43.4 7.9C43.6 8.1 43.7 8.3 43.4 8.4C43.1 8.7 43.1 8.7 42.8 8.4C42.2 7.9 41.5 7.8 40.8 8C40.5 8 40.2 8.3 40.2 8.7C40.2 9.1 40.4 9.3 40.7 9.5C41.1 9.7 41.6 9.8 42 10C42.3 10 42.5 10.2 42.8 10.3C43.5 10.6 43.9 11.2 43.8 12C43.8 12.8 43.4 13.3 42.7 13.7C42.3 13.9 41.9 13.9 41.6 13.9" fill="#918B9E"/>
<path d="M47.1 13.9C46.1 13.9 45.3 13.6 44.6 13C44.4 12.8 44.4 12.7 44.6 12.6C45 12.2 45 12.2 45.4 12.6C46.1 13.1 46.8 13.3 47.6 13.1C48 13.1 48.3 12.8 48.3 12.4C48.3 12 48.2 11.6 47.8 11.4C47.5 11.2 47.1 11.1 46.7 11C46.3 10.9 46 10.8 45.6 10.6C44.4 9.99998 44.3 8.39998 45.4 7.69998C46.4 6.99998 48.1 7.19998 49 8.09998C49.2 8.29998 49.2 8.49998 49 8.59998C48.7 8.89998 48.7 8.89998 48.3 8.59998C47.7 8.09998 47 7.99998 46.2 8.19998C45.9 8.19998 45.6 8.49998 45.6 8.89998C45.6 9.29998 45.7 9.49998 46 9.69998C46.4 9.89998 46.8 9.99998 47.2 10.1C47.6 10.2 48 10.3 48.3 10.5C49.5 11.2 49.5 12.9 48.3 13.6C47.8 13.9 47.3 14 46.9 14" fill="#918B9E"/>
<path d="M68.5 13.9C67 13.9 65.8 13 65.3 11.6C64.8 10.2 65.3 8.59999 66.4 7.79999C67.6 6.89999 69.2 6.89999 70.4 7.69999C70.9 8.09999 70.9 8.39999 70.4 8.69999C70.2 8.79999 70.2 8.69999 70.1 8.59999C69.2 7.89999 68 7.79999 67.1 8.49999C66 9.29999 65.8 11 66.7 12.1C67.5 13.1 69.2 13.3 70.2 12.4C70.4 12.2 70.5 12.3 70.7 12.4C71.2 12.9 71.2 12.9 70.7 13.3C70.1 13.7 69.4 13.9 68.7 13.9" fill="#918B9E"/>
<path d="M59.1 21.2C59.1 20.2 59.1 19.2 59.1 18.2C59.1 18 59.1 17.9 59.4 17.9C59.8 17.9 60.2 17.9 60.6 17.9C60.8 17.9 60.9 17.9 60.9 18.2C60.9 20.2 60.9 22.3 60.9 24.3C60.9 24.5 60.9 24.6 60.6 24.6C60.2 24.6 59.8 24.6 59.3 24.6C59.1 24.6 59 24.6 59 24.3C59 23.3 59 22.2 59 21.2" fill="#918B9E"/>
<path d="M59.9999 14.7C60.5999 14.7 60.9999 15.1 60.9999 15.7C60.9999 16.3 60.4999 16.8 59.8999 16.8C59.2999 16.8 58.8999 16.3 58.8999 15.7C58.8999 15.1 59.3999 14.7 59.9999 14.7Z" fill="#918B9E"/>
<path d="M5 14.5C5 11.9 7.50001 11.1 9.20001 11.7C9.90001 12 9.90002 12.1 9.40002 12.6C8.20002 13.8 6.99999 15 5.79999 16.2C5.49999 16.5 5.50002 16.4 5.40002 16.2C5.10002 15.7 5 15.2 5 14.6" fill="#918B9E"/>
</svg>
