<svg width="51" height="21" viewBox="0 0 51 21" fill="none" xmlns="http://www.w3.org/2000/svg">
<path d="M49.7 10.5C49.7 15.4 39.6 19.5 25.5 19.5C11.4 19.5 1.30002 15.4 1.30002 10.5C1.30002 5.59995 11.4 1.49995 25.5 1.49995C39.6 1.49995 49.7 5.59995 49.7 10.5ZM50.7 20.6999V0.199951H0.400024V20.6H50.7V20.6999Z" fill="#918B9E"/>
<path d="M45.9001 7.09998C46.0001 7.09998 46.1001 7.09997 46.1001 6.89997C46.1001 6.69997 46.1001 6.69998 45.9001 6.69998H45.6001V7.09998H45.8M46.3 7.69998H46.1001L45.9001 7.29998H45.6001V7.69998H45.4001V6.49998H45.8C46 6.49998 46.2001 6.69997 46.2001 6.89997C46.2001 7.09997 46.2001 7.19998 46.0001 7.19998L46.3 7.69998ZM46.6001 7.09998C46.6001 7.49998 46.3 7.89997 45.8 7.89997C45.4 7.89997 45.0001 7.59998 45.0001 7.09998C45.0001 6.59998 45.3001 6.29998 45.7001 6.29998C46.1001 6.29998 46.5001 6.59998 46.5001 7.09998M44.8 7.09998C44.8 7.59998 45.2001 8.09998 45.8 8.09998C46.3 8.09998 46.8 7.69998 46.8 7.09998C46.8 6.49998 46.4001 6.09998 45.9001 6.09998C45.4001 6.09998 44.9001 6.49998 44.9001 6.99998M10.6001 7.19998C10.6001 6.99998 10.6001 6.79998 10.7001 6.59998H5.80005C5.90005 6.79998 5.90005 6.99998 5.90005 7.19998V13.4C5.90005 13.6 5.90005 13.8 5.80005 14H10.7001C10.6001 13.8 10.6001 13.6 10.6001 13.4V7.19998ZM41.0001 11.2L40.3 9.49998C40.3 9.29998 40.2001 9.19998 40.2001 8.99998C40.2001 9.19998 40.2001 9.29998 40.1001 9.49998C40.1001 9.49998 39.8001 10.3 39.5001 11.2H41.1001H41.0001ZM46.3 13.4C46.3 13.6 46.5001 13.9 46.7001 14H42.0001C42.0001 13.8 42.0001 13.6 41.9001 13.4C41.9001 13.4 41.9001 13.2 41.7001 13C41.7001 12.9 39.0001 12.9 39.0001 12.9C39.0001 13 39 13.2 38.8 13.4C38.8 13.6 38.6001 13.8 38.7001 14H35.0001C35.2001 13.8 35.3 13.6 35.3 13.4L37.5001 7.19998C37.5001 6.99998 37.7001 6.79998 37.6001 6.59998H43.9001C43.9001 6.79998 43.9001 6.99998 44.0001 7.19998C44.2001 7.69998 46.2001 13 46.4001 13.4M34.2001 6.49998H25.4001C25.5001 6.69998 25.5001 6.89998 25.5001 7.09998V13.3C25.5001 13.5 25.5001 13.7 25.4001 13.9H34.2001V11.8C34.0001 11.9 33.8001 11.9 33.6001 11.9H29.9001V10.9H33.4001V9.29998H29.9001V8.29998H33.6001C33.8001 8.29998 34.0001 8.29997 34.2001 8.39997V6.29998V6.49998ZM17.4001 6.49998C17.3001 6.69998 17.3 6.89998 17.3 7.09998V9.79998C17.3 9.79998 18.8001 7.89998 19.1001 7.49998C19.4001 7.19998 19.7001 6.69998 19.7001 6.49998H24.4001C24.1001 6.69998 23.7001 7.09998 23.4001 7.49998C23.1001 7.79998 21.7001 9.59998 21.7001 9.59998C21.7001 9.59998 23.9001 12.9 24.2001 13.4C24.4001 13.6 24.5001 13.8 24.7001 14H19.3C19.3 13.8 19.1001 13.3 18.9001 13C18.7001 12.7 17.4001 10.8 17.4001 10.8V13.4C17.4001 13.6 17.4001 13.8 17.5001 14H13.0001C13.1001 13.8 13.1001 13.6 13.1001 13.4V7.19998C13.1001 6.99998 13.1001 6.79998 13.0001 6.59998H17.5001L17.4001 6.49998Z" fill="#918B9E"/>
</svg>
