<svg width="111" height="16" viewBox="0 0 111 16" fill="none" xmlns="http://www.w3.org/2000/svg">
<path d="M0 7.51702V15.4745H3.85269V6.48617L0 7.51702ZM6.61778 15.4745V0.698936H11.724C13.3646 0.698936 14.5444 0.897872 15.3186 1.27766C16.9592 2.05532 17.9362 3.71915 17.9362 5.70851C17.9362 7.69787 16.3693 10.8447 12.0374 10.8447H10.2677V15.4745H6.61778ZM11.9821 7.51702C13.5489 7.51702 14.3416 7.01064 14.3416 5.7266C14.3416 4.44255 13.5489 3.99043 11.853 3.99043H10.3414V7.51702H11.9821ZM26.7661 15.5287L23.3005 10.7904H23.2268V15.5468H19.5584V0.717021H24.4618C26.0287 0.717021 27.2085 0.915958 28.0564 1.2234C29.6971 1.92872 30.8031 3.66489 30.8031 5.78085C30.8031 7.89681 29.3653 10.0128 27.0794 10.4649L31.2086 15.4745H26.7661V15.5287ZM24.6646 8.15C26.1762 8.15 27.1532 7.44468 27.1532 6.03404C27.1532 4.6234 26.1762 4.04468 24.7383 4.04468H23.3005V8.15H24.6646ZM61.7168 15.5287V0.698936H66.823C68.4636 0.698936 69.6434 0.897872 70.4176 1.27766C72.0582 2.05532 73.0352 3.71915 73.0352 5.70851C73.0352 7.69787 71.4684 10.8447 67.1364 10.8447H65.3667V15.4745H61.6984V15.5287H61.7168ZM67.0258 7.57128C68.5927 7.57128 69.3853 7.06489 69.3853 5.78085C69.3853 4.49681 68.5927 4.04468 66.8967 4.04468H65.3852V7.57128H67.0258ZM74.7312 15.5287V0.698936H83.1002V4.04468H78.3811V6.35957H82.8974V9.70532H78.3811V12.2734H83.1002V15.6191H74.7312V15.5287ZM103.801 15.5287V4.0266H100.797V0.680851H110.622V4.0266H107.673V15.5287H103.801ZM55.4308 6.86596C53.7902 6.16064 52.9423 5.78085 52.9423 4.8766C52.9423 3.97234 53.5321 3.71915 54.2511 3.71915C54.97 3.71915 55.4308 4.09894 55.6336 5.12979L59.3573 4.17128C59.2282 3.66489 59.2282 3.33936 58.7674 2.6883C58.3803 2.03723 57.7904 1.53085 56.9977 1.15106C56.2051 0.771277 55.3571 0.5 54.3064 0.5C51.5597 0.5 49.0711 2.36277 49.0711 4.85851C49.0711 7.35426 50.1772 8.07766 52.6657 9.03617C54.0483 9.54255 55.6705 10.067 55.6705 11.2787C55.6705 12.4904 55.0069 12.6894 54.2326 12.6894C53.4584 12.6894 52.6657 11.9117 52.6657 10.7L48.9421 11.6585C48.9421 11.6585 48.9421 11.9117 49.0158 12.4362C49.0896 12.6894 49.2186 13.0872 49.532 13.7202C49.9191 14.2989 50.9698 15.8362 54.2511 15.8362C57.5323 15.8362 59.4863 14.1723 59.4863 11.2787C59.56 9.50638 58.7674 8.2766 55.4308 6.86596ZM92.483 12.6532C90.1235 12.6532 88.4276 10.6638 88.4276 8.22234C88.4276 5.78085 90.0682 3.91808 92.483 3.91808C94.8979 3.91808 95.4878 4.8766 96.1514 6.48617L99.9488 5.52766C99.746 4.94894 99.4326 4.37021 99.0271 3.86383C98.64 3.35745 98.1791 2.90532 97.6445 2.45319C96.133 1.16915 94.437 0.662766 92.4093 0.662766C88.0958 0.662766 84.6302 4.18936 84.6302 8.11383C84.6302 12.0383 85.3491 12.2191 86.9897 13.7564C88.5566 15.2394 90.529 15.9989 92.6121 15.9989C95.8196 15.9989 98.6953 14.1362 99.875 11.116L96.1514 10.1574C95.3587 11.7489 94.0499 12.6532 92.483 12.6532ZM31.946 8.60213C31.946 4.04468 35.3563 0.57234 39.9279 0.57234C44.4995 0.57234 47.9098 3.91809 47.9098 8.15C47.9098 12.3819 44.4442 15.9266 40.1307 15.9266C35.8171 15.9266 31.946 12.9606 31.946 8.60213ZM44.0387 8.2766C44.0387 5.9617 42.3427 3.91808 39.9095 3.91808C37.4762 3.91808 35.7803 5.90745 35.7803 8.22234C35.7803 10.5372 37.4762 12.6532 39.9648 12.6532C42.4533 12.6532 44.0387 10.6638 44.0387 8.2766ZM3.85269 0.698936H0V4.93085L3.85269 3.9V0.698936Z" fill="#918B9E"/>
</svg>
