<svg width="38" height="38" viewBox="0 0 38 38" fill="none" xmlns="http://www.w3.org/2000/svg">
<path d="M32.1 29.6H28.9C28.9 18.2 27.1 9 24.9 9C22.7 9 21 17.5 21 28H17.8C17.8 17.5 16 9 13.8 9C11.6 9 9.90002 18.2 9.90002 29.6H6.70001C6.70001 17.3 9.79999 7.4 13.8 7.4C16 7.4 18.1 10.4 19.4 15C20.7 10.3 22.7 7.3 24.9 7.3C28.8 7.3 32.1 17.2 32.1 29.5M38 18.5C38 6.5 38 2.2 37.9 2C37.7 1.5 37.1 0.7 36.7 0.5C36 0.1 36.2 0 25.6 0C15 0 21.7 0 19.2 0C10.4 0 2.89998 -9.68575e-08 2.59998 0.0999999C1.69998 0.3 1.09998 0.9 0.599976 2C0.399976 2.4 0.400024 3.5 0.400024 18.5C0.400024 27.3 0.4 34.8 0.5 35.1C0.7 36.4 1.49999 37.1 2.79999 37.4C3.19999 37.4 11.5 37.5 19.7 37.5C27.9 37.5 34.9 37.5 35.4 37.4C36.3 37.2 36.8 36.9 37.3 36.3C38 35.2 38 36.3 38 18.5Z" fill="#918B9E"/>
</svg>
