<svg width="61" height="22" viewBox="0 0 61 22" fill="none" xmlns="http://www.w3.org/2000/svg">
<path d="M42.1535 11.6442V21.5H37.3117V11.6442C37.3117 10.3223 36.456 9.25558 35.1174 9.25558C33.7787 9.25558 32.9315 10.3181 32.9231 11.6317C32.9231 11.6359 32.9231 11.64 32.9231 11.6442V21.4958H28.0812V11.64C28.0812 11.6359 28.0812 11.6317 28.0812 11.6275C28.0769 10.3139 27.2212 9.25139 25.8869 9.25139C24.5525 9.25139 23.6926 10.3223 23.6926 11.64V21.4958H18.8507V11.64C18.8507 7.80398 21.9981 4.69582 25.8784 4.69582C27.5771 4.69582 29.2165 5.30239 30.4958 6.39841C33.4272 3.88008 37.8666 4.18546 40.4167 7.08028C41.5308 8.34363 42.1451 9.96255 42.1408 11.64M61 0.5V13.1C61 17.7392 57.1917 21.5 52.4939 21.5C47.796 21.5 43.9878 17.7392 43.9878 13.1C43.9878 8.46076 47.796 4.7 52.4939 4.7C53.7647 4.7 55.0186 4.98028 56.1666 5.51992V0.5H61ZM56.1666 13.1C56.1666 11.0962 54.523 9.47311 52.4939 9.47311C50.4648 9.47311 48.8212 11.0962 48.8212 13.1C48.8212 15.1038 50.4648 16.7269 52.4939 16.7269C54.523 16.7269 56.1666 15.1038 56.1666 13.1ZM17.0122 13.1C17.0122 17.7392 13.204 21.5 8.50611 21.5C3.80826 21.5 0 17.7392 0 13.1C0 8.46076 3.80826 4.7 8.50611 4.7C13.204 4.7 17.0122 8.46076 17.0122 13.1ZM12.1788 13.1C12.1788 11.0962 10.5352 9.47311 8.50611 9.47311C6.47701 9.47311 4.8334 11.0962 4.8334 13.1C4.8334 15.1038 6.47701 16.7269 8.50611 16.7269C10.5352 16.7269 12.1788 15.1038 12.1788 13.1Z" fill="#918B9E"/>
</svg>
