<svg width="55" height="19" viewBox="0 0 55 19" fill="none" xmlns="http://www.w3.org/2000/svg">
<path d="M47.8999 0.5C45.1999 0.5 42.9999 1.3 41.3999 3.1C41.5999 2.5 41.7 1.8 41.7999 0.900001H32.2999C30.1999 0.900001 28.9999 1.8 28.1999 4.2L28.6 0.900001H18.9999C17.1999 0.900001 16 1.7 15.6 3.4C14.4 1.5 12.3 0.5 9.59995 0.5C4.49995 0.5 1.19994 3.4 0.599943 9.7V10.5C-5.65648e-05 16.1 2.99995 18.9 7.49995 18.9C11.9999 18.9 15.8999 15.9 16.4999 9.6V8.8C16.6999 7.4 16.5999 6.1 16.2999 5H20.6L19.3999 15.6C19.1999 17.7 20.2999 18.7 22.1999 18.7C24.0999 18.7 23.7999 18.7 24.1999 18.6L25.6999 5.1H30.6999L29.4999 15.7C29.2999 17.8 30.3999 18.8 32.2999 18.8C34.1999 18.8 33.8999 18.8 34.2999 18.7L35.7999 5.2H38.2999C39.2 5.2 39.7999 5 40.3999 4.6C39.5999 6 39.0999 7.7 38.8999 9.8V10.6C38.2999 16.2 41.2999 19 45.7999 19C50.2999 19 54.2 16 54.7999 9.7V8.9C55.3999 3.3 52.3999 0.5 47.8999 0.5ZM11.3999 8.5V9.1C10.9999 13.4 9.59994 14.7 7.89994 14.7C6.19994 14.7 5.29995 13.7 5.49995 10.9V10.3C5.89995 6.1 7.29994 4.7 8.99994 4.7C10.6999 4.7 11.5999 5.8 11.3999 8.5ZM49.7999 8.5V9.1C49.3999 13.4 48 14.7 46.2999 14.7C44.5999 14.7 43.6999 13.7 43.8999 10.9V10.3C44.2999 6.1 45.6999 4.7 47.3999 4.7C49.0999 4.7 50 5.8 49.7999 8.5Z" fill="#918B9E"/>
</svg>
