<svg width="72" height="26" viewBox="0 0 72 26" fill="none" xmlns="http://www.w3.org/2000/svg">
<path fill-rule="evenodd" clip-rule="evenodd" d="M0 0.0999756H72V25.0796H0V0.0999756ZM9.1505 19.7336C9.1505 20.6578 8.70035 21.1073 7.74965 21.1073H5.3729C4.44741 21.1073 3.99727 20.6578 3.99727 19.7336V5.51781C3.99727 4.56849 4.44141 4.11781 5.3729 4.119H10.5021C15.7562 4.119 17.7572 6.11713 17.7572 9.4901C17.7572 11.487 16.7321 13.1651 14.3746 14.0389L18.0273 19.4328C18.2274 19.758 18.3274 20.0329 18.3274 20.2575C18.3274 20.8328 17.7272 21.1073 17.007 21.1073H14.03C13.1802 21.1073 12.7048 20.7069 12.1538 19.7576L9.20091 14.6874H9.1505V19.7336ZM9.1505 8.01098V11.5637H10.2512C11.7277 11.5637 12.3531 10.9345 12.3531 9.78496C12.3531 8.63547 11.7277 8.01098 10.2512 8.01098H9.1505ZM32.2686 19.7336C32.2686 20.6578 31.8185 21.1073 30.8678 21.1073H21.386C20.4605 21.1073 20.0103 20.6578 20.0103 19.7336V5.51781C20.0103 4.56849 20.4605 4.119 21.386 4.119H30.1175C31.0682 4.119 31.5184 4.56849 31.5184 5.51781V6.74162C31.5184 7.66577 31.0682 8.11526 30.1175 8.11526H25.2632V10.5677H29.3661C30.3168 10.5677 30.7669 11.0172 30.7669 11.9665V13.1879C30.7669 14.112 30.3168 14.5615 29.3661 14.5615H25.2632V17.1098H30.8678C31.8185 17.1098 32.2686 17.5593 32.2686 18.5086V19.7336ZM44.8486 4.11781C45.8989 4.11781 46.3743 4.51815 46.5747 5.46747L48.3057 13.8124H48.3561L49.7329 5.46987C49.883 4.51935 50.3583 4.1202 51.4591 4.1202H53.2188C54.0387 4.1202 54.5393 4.49538 54.5393 5.24452C54.5355 5.42983 54.5101 5.61406 54.4636 5.7935L51.1866 19.7336C50.9621 20.6578 50.512 21.1073 49.3356 21.1073H47.2806C46.2302 21.1073 45.7549 20.7069 45.5544 19.7576L43.6782 10.636H43.6278L41.7516 19.7552C41.5512 20.7045 41.0758 21.1049 40.0255 21.1049H37.974C36.7989 21.1049 36.3487 20.6554 36.123 19.7312L32.846 5.7911C32.7996 5.61165 32.7742 5.42742 32.7704 5.24213C32.7704 4.49298 33.2397 4.11781 34.0908 4.11781H36.147C37.2478 4.11781 37.7231 4.51815 37.8732 5.46747L39.2524 13.8124H39.2992L41.0014 5.46747C41.2018 4.51695 41.6772 4.11781 42.7275 4.11781H44.8486ZM68.0471 19.7336C68.0471 20.6578 67.597 21.1073 66.6463 21.1073H57.1633C56.2378 21.1073 55.7877 20.6578 55.7877 19.7336V5.51781C55.7877 4.56849 56.2378 4.119 57.1633 4.119H65.9009C66.8516 4.119 67.3017 4.56849 67.3017 5.51781V6.74162C67.3017 7.66577 66.8516 8.11526 65.9009 8.11526H61.0417V10.5677H65.1446C66.0953 10.5677 66.5455 11.0172 66.5455 11.9665V13.1879C66.5455 14.112 66.0953 14.5615 65.1446 14.5615H61.0417V17.1098H66.6463C67.597 17.1098 68.0471 17.5593 68.0471 18.5086V19.7336Z" fill="#918B9E"/>
</svg>
