<svg width="89" height="25" viewBox="0 0 89 25" fill="none" xmlns="http://www.w3.org/2000/svg">
<path d="M64.3 16.4C61.8 16.4 60.1 15.1 60.1 12.1C60.1 9.09998 61.5 7.59998 64.6 7.59998C67.7 7.59998 66.1 7.69998 66.7 7.99998L66.2 9.79998C65.7 9.59998 65.2 9.49998 64.7 9.49998C63.1 9.49998 62.5 10.5 62.5 12.1C62.5 13.7 63.1 14.6 64.6 14.6C66.1 14.6 65.8 14.4 66.3 14.2L66.6 15.9C66.2 16.2 65.3 16.4 64.3 16.4ZM44 6.69998C44.8 6.69998 45.4 6.09997 45.4 5.39997C45.4 4.69997 44.8 4.09998 44 4.09998C43.2 4.09998 42.7 4.69997 42.7 5.39997C42.7 6.09997 43.3 6.69998 44 6.69998ZM42.8 16.2H45V7.69998C44 7.59998 42.8 7.89998 42.8 9.49998V16.2ZM71.3 9.39997C70.3 9.39997 69.4 10.1 69.4 12C69.4 13.9 70 14.5 71.3 14.5C72.6 14.5 73.2 13.6 73.2 11.9C73.2 10.2 72.6 9.39997 71.3 9.39997ZM71.2 16.4C68.8 16.4 67.1 15.1 67.1 12.1C67.1 9.09998 68.9 7.49998 71.4 7.49998C73.9 7.49998 75.3 8.79998 75.3 11.7C75.3 14.6 73.6 16.3 71.1 16.3M27.7 9.59998C27.2 9.39998 26.5 9.19998 25.9 9.19998C25.3 9.19998 24.7 9.39998 24.7 9.99998C24.7 11.5 28.5 10.6 28.5 13.6C28.5 16.6 26.8 16.4 25 16.4C23.2 16.4 23.3 16.3 22.5 16V14.2C22.6 14.2 23.9 14.6 24.9 14.6C25.9 14.6 26.2 14.4 26.2 13.7C26.2 12.1 22.4 13.1 22.4 10.1C22.4 7.09998 24 7.49998 25.7 7.49998C27.4 7.49998 27.6 7.69997 28.1 7.89997L27.7 9.49998V9.59998ZM41.8 7.69998C41.3 10.2 40.1 14.2 39.3 16.2H37L35.4 10.6L33.8 16.2H31.5C30.8 14.2 29.4 10.1 29 7.69998H31.2L32.6 13.5L34.3 7.69998H36.5L38.2 13.5L39.6 7.69998H41.7H41.8ZM86.4 7.59998C88 7.59998 89 8.49997 89 10.4V16.2H86.8V10.8C86.8 9.89998 86.5 9.39997 85.6 9.39997C84.7 9.39997 83.9 10.2 83.9 11.7V16.3H81.8V10.9C81.8 10.1 81.5 9.49998 80.6 9.49998C79.7 9.49998 78.9 10.4 78.9 11.9V16.4H76.7V7.89997C78.1 7.69997 78.7 8.29998 78.8 9.29998C79.3 8.39998 80.3 7.79998 81.4 7.79998C82.5 7.79998 83.5 8.59997 83.8 9.39997C84.2 8.59997 85.1 7.79998 86.6 7.79998M51.6 9.59998C51.1 9.39998 50.4 9.19998 49.8 9.19998C49.2 9.19998 48.6 9.39998 48.6 9.99998C48.6 11.5 52.4 10.6 52.4 13.6C52.4 16.6 50.7 16.4 48.9 16.4C47.1 16.4 47.2 16.3 46.4 16L46.6 14.2C46.6 14.2 47.8 14.6 48.9 14.6C50 14.6 50.2 14.4 50.2 13.7C50.2 12.1 46.4 13.1 46.4 10.1C46.4 7.09998 48 7.49998 49.7 7.49998C51.4 7.49998 51.6 7.69997 52.1 7.89997L51.7 9.49998L51.6 9.59998ZM58.5 9.59998C58 9.39998 57.3 9.19998 56.7 9.19998C56.1 9.19998 55.5 9.39998 55.5 9.99998C55.5 11.5 59.3 10.6 59.3 13.6C59.3 16.6 57.6 16.4 55.8 16.4C54 16.4 54.1 16.3 53.3 16V14.2C53.4 14.2 54.7 14.6 55.7 14.6C56.7 14.6 57 14.4 57 13.7C57 12.1 53.2 13.1 53.2 10.1C53.2 7.09998 54.8 7.49998 56.5 7.49998C58.2 7.49998 58.4 7.69997 58.9 7.89997L58.5 9.49998V9.59998Z" fill="#918B9E"/>
<path d="M15.8 11.4C15.5 11.1 15.2 10.8 14.8 10.5C12.8 8.7 9.69999 6.8 8.29999 5.7C7.09999 4.7 5.99998 3.7 5.59998 2.7C5.59998 2.7 5.40002 2.8 5.40002 2.9C4.80002 3.3 4.19998 3.8 3.59998 4.2C3.19998 4.5 2.8 4.8 2.5 5.2C2.2 5.5 1.8 5.9 1.5 6.2C0.9 6.9 0.500024 7.7 0.400024 8.6C0.400024 8.8 0.400024 8.9 0.400024 9C0.400024 9.2 0.400024 9.3 0.400024 9.5C0.500024 10.1 0.799976 10.6 1.09998 11C1.49998 11.5 1.90002 11.9 2.40002 12.3C2.40002 12.3 2.59998 12.4 2.59998 12.5C3.19998 13 3.70001 13.4 4.20001 14C5.00001 14.7 5.69998 15.5 6.09998 16.6C6.49998 17.6 6.7 18.6 7 19.6C7 19.7 7 19.8 7 19.9C7 20.1 7.10001 20.2 7.20001 20.4C7.20001 20.6 7.39998 20.9 7.59998 21.1V17.1C6.69998 16.4 6.90002 15 6.40002 14.1C5.70002 12.8 3.30001 12.5 3.70001 10.6C4.00001 9.4 5.69999 9.6 6.29999 8.7C6.59999 8.3 6.7 7.7 7 7.3C7.2 6.8 7.60001 6.4 8.20001 6.4V24.2C8.60001 24.2 9.09998 24.2 9.59998 24C10.2 23.9 10.8 23.7 11.4 23.6C11.9 23.4 12.4 23.3 12.9 23C13.3 22.8 13.8 22.6 14.2 22.4C14.7 22.1 15.2 21.7 15.7 21.3C16.2 20.8 16.7 20.3 17.1 19.8C17.5 19.2 17.8 18.6 18 17.8C18 17.4 18.2 17 18.2 16.6C18.2 16.1 18.2 15.7 18.1 15.2C17.9 14.6 17.7 14 17.3 13.5C16.9 12.9 16.4 12.3 15.9 11.7M8.29999 0C8.29999 0 8.1 0 8 0C7.8 0 7.39998 7.59959e-07 7.09998 0.200001C6.89998 0.200001 6.60002 0.4 6.40002 0.6C6.20002 0.8 6.00002 1 5.90002 1.3C5.90002 1.3 5.90002 1.5 5.90002 1.6C5.90002 2.8 7.19999 4.1 8.29999 5V0.1V0ZM10.8 6.7C12.1 7.6 13.7 8.7 15 9.8C15 9.4 15.1 8.9 15.1 8.3C15.1 5.1 13.1 3.2 11.1 2.5C10.6 2.3 10 2.2 9.5 2.2C9 2.2 9.10002 2.2 8.90002 2.2V5.3C9.40002 5.7 10 6.1 10.7 6.6M6.59998 20.2C6.59998 20.4 6.80002 20.6 6.90002 20.9C4.70002 19.7 3.79999 18.1 3.79999 16.8C3.79999 15.5 4.09999 15.5 4.29999 15C5.19999 16 5.89998 17.1 6.09998 18C6.29998 18.8 6.50001 19.6 6.70001 20.2" fill="#918B9E"/>
</svg>
